  0
SECTION
  2
HEADER
  9
$ACADVER
  1
AC1009
  9
$DWGCODEPAGE
  3
ansi_1252
  9
$INSBASE
 10
0.0
 20
0.0
 30
0.0
  9
$EXTMIN
 10
-15.108868
 20
-27.824594
 30
-2.816734
  9
$EXTMAX
 10
10.629227
 20
7.815761
 30
0.0
  9
$LIMMIN
 10
0.0
 20
0.0
  9
$LIMMAX
 10
12.0
 20
9.0
  9
$ORTHOMODE
 70
     0
  9
$REGENMODE
 70
     1
  9
$FILLMODE
 70
     1
  9
$QTEXTMODE
 70
     0
  9
$MIRRTEXT
 70
     0
  9
$DRAGMODE
 70
     2
  9
$LTSCALE
 40
1.0
  9
$OSMODE
 70
     0
  9
$ATTMODE
 70
     1
  9
$TEXTSIZE
 40
2.0
  9
$TRACEWID
 40
0.05
  9
$TEXTSTYLE
  7
STANDARD
  9
$CLAYER
  8
0
  9
$CELTYPE
  6
BYLAYER
  9
$CECOLOR
 62
   256
  9
$DIMSCALE
 40
1.0
  9
$DIMASZ
 40
0.18
  9
$DIMEXO
 40
0.0625
  9
$DIMDLI
 40
0.38
  9
$DIMRND
 40
0.0
  9
$DIMDLE
 40
0.0
  9
$DIMEXE
 40
0.18
  9
$DIMTP
 40
0.0
  9
$DIMTM
 40
0.0
  9
$DIMTXT
 40
0.18
  9
$DIMCEN
 40
0.09
  9
$DIMTSZ
 40
0.0
  9
$DIMTOL
 70
     0
  9
$DIMLIM
 70
     0
  9
$DIMTIH
 70
     1
  9
$DIMTOH
 70
     1
  9
$DIMSE1
 70
     0
  9
$DIMSE2
 70
     0
  9
$DIMTAD
 70
     0
  9
$DIMZIN
 70
     1
  9
$DIMBLK
  1

  9
$DIMASO
 70
     1
  9
$DIMSHO
 70
     1
  9
$DIMPOST
  1

  9
$DIMAPOST
  1

  9
$DIMALT
 70
     0
  9
$DIMALTD
 70
     2
  9
$DIMALTF
 40
25.4
  9
$DIMLFAC
 40
1.0
  9
$DIMTOFL
 70
     0
  9
$DIMTVP
 40
0.0
  9
$DIMTIX
 70
     0
  9
$DIMSOXD
 70
     0
  9
$DIMSAH
 70
     0
  9
$DIMBLK1
  1

  9
$DIMBLK2
  1

  9
$DIMSTYLE
  2
STANDARD
  9
$DIMCLRD
 70
     0
  9
$DIMCLRE
 70
     0
  9
$DIMCLRT
 70
     0
  9
$DIMTFAC
 40
1.0
  9
$DIMGAP
 40
0.09
  9
$LUNITS
 70
     2
  9
$LUPREC
 70
     3
  9
$AXISMODE
 70
     0
  9
$AXISUNIT
 10
0.0
 20
0.0
  9
$SKETCHINC
 40
0.1
  9
$FILLETRAD
 40
0.0
  9
$AUNITS
 70
     1
  9
$AUPREC
 70
     4
  9
$MENU
  1
acad
  9
$ELEVATION
 40
0.0
  9
$PELEVATION
 40
0.0
  9
$THICKNESS
 40
0.0
  9
$LIMCHECK
 70
     0
  9
$BLIPMODE
 70
     0
  9
$CHAMFERA
 40
0.0
  9
$CHAMFERB
 40
0.0
  9
$SKPOLY
 70
     0
  9
$TDCREATE
 40
1759013.513518519
  9
$TDUPDATE
 40
1759013.513518519
  9
$TDINDWG
 40
0.0000000000
  9
$TDUSRTIMER
 40
0.0000000000
  9
$USRTIMER
 70
     1
  9
$ANGBASE
 50
0.0
  9
$ANGDIR
 70
     0
  9
$PDMODE
 70
     0
  9
$PDSIZE
 40
0.0
  9
$PLINEWID
 40
0.0
  9
$COORDS
 70
     1
  9
$SPLFRAME
 70
     0
  9
$SPLINETYPE
 70
     6
  9
$SPLINESEGS
 70
     8
  9
$ATTDIA
 70
     1
  9
$ATTREQ
 70
     1
  9
$HANDLING
 70
     1
  9
$HANDSEED
  5
79FC
  9
$SURFTAB1
 70
     6
  9
$SURFTAB2
 70
     6
  9
$SURFTYPE
 70
     6
  9
$SURFU
 70
     6
  9
$SURFV
 70
     6
  9
$UCSNAME
  2

  9
$UCSORG
 10
0.0
 20
0.0
 30
0.0
  9
$UCSXDIR
 10
1.0
 20
0.0
 30
0.0
  9
$UCSYDIR
 10
0.0
 20
1.0
 30
0.0
  9
$PUCSNAME
  2

  9
$PUCSORG
 10
0.0
 20
0.0
 30
0.0
  9
$PUCSXDIR
 10
1.0
 20
0.0
 30
0.0
  9
$PUCSYDIR
 10
0.0
 20
1.0
 30
0.0
  9
$USERI1
 70
     0
  9
$USERI2
 70
     0
  9
$USERI3
 70
     0
  9
$USERI4
 70
     0
  9
$USERI5
 70
     0
  9
$USERR1
 40
0.0
  9
$USERR2
 40
0.0
  9
$USERR3
 40
0.0
  9
$USERR4
 40
0.0
  9
$USERR5
 40
0.0
  9
$WORLDVIEW
 70
     1
  9
$SHADEDGE
 70
     1
  9
$SHADEDIF
 70
    70
  9
$TILEMODE
 70
     1
  9
$MAXACTVP
 70
    16
  9
$PINSBASE
 10
0.0
 20
0.0
 30
0.0
  9
$PLIMCHECK
 70
     0
  9
$PEXTMIN
 10
1.000000E+20
 20
1.000000E+20
 30
1.000000E+20
  9
$PEXTMAX
 10
-1.000000E+20
 20
-1.000000E+20
 30
-1.000000E+20
  9
$PLIMMIN
 10
0.0
 20
0.0
  9
$PLIMMAX
 10
12.0
 20
9.0
  9
$UNITMODE
 70
     0
  9
$VISRETAIN
 70
     0
  9
$PLINEGEN
 70
     0
  9
$PSLTSCALE
 70
     1
  9
$TREEDEPTH
 70
  3020
  9
$DWGCODEPAGE
  3
ansi_1252
  0
ENDSEC
  0
SECTION
  2
TABLES
  0
TABLE
  2
VPORT
 70
     1
  0
VPORT
  2
*ACTIVE
 70
     0
 10
0.0
 20
0.0
 11
1.0
 21
1.0
 12
14.76696
 22
-2.879606
 13
0.0
 23
0.0
 14
1.0
 24
1.0
 15
1.0
 25
1.0
 16
0.0
 26
0.0
 36
1.0
 17
0.0
 27
0.0
 37
0.0
 40
57.324464
 41
1.362357
 42
50.0
 43
0.0
 44
0.0
 50
0.0
 51
0.0
 71
     0
 72
   100
 73
     1
 74
     1
 75
     0
 76
     0
 77
     0
 78
     0
  0
ENDTAB
  0
TABLE
  2
LTYPE
 70
     9
  0
LTYPE
  2
CONTINUOUS
 70
    64
  3
Solid line
 72
    65
 73
     0
 40
0.0
  0
LTYPE
  2
CENTERLINE
 70
     0
  3
____ _ ____ _ ____ _ ____ _ ____ _ ____ _ ____ _ ____
 72
    65
 73
     4
 40
2.0
 49
1.25
 49
-0.25
 49
0.25
 49
-0.25
  0
LTYPE
  2
DOTTED
 70
     0
  3
. . . . . . . . . . . . . . . . . . . . . . . . . . .
 72
    65
 73
     2
 40
0.25
 49
0.0
 49
-0.25
  0
LTYPE
  2
HIDDEN
 70
     0
  3
__ __ __ __ __ __ __ __ __ __ __ __ __ __ __ __ __ __
 72
    65
 73
     2
 40
0.375
 49
0.25
 49
-0.125
  0
LTYPE
  2
DASHED
 70
     0
  3
____   ____   ____   ____   ____   ____   ____   ____
 72
    65
 73
     2
 40
0.75
 49
0.5
 49
-0.25
  0
LTYPE
  2
BORDER
 70
     0
  3
__ __ . __ __ . __ __ . __ __ . __ __ . __ __ . __ __
 72
    65
 73
     6
 40
1.75
 49
0.5
 49
-0.25
 49
0.5
 49
-0.25
 49
0.0
 49
-0.25
  0
LTYPE
  2
DASHDOT
 70
     0
  3
__ . __ . __ . __ . __ . __ . __ . __ . __ . __ . __
 72
    65
 73
     4
 40
1.0
 49
0.5
 49
-0.25
 49
0.0
 49
-0.25
  0
LTYPE
  2
DIVIDE
 70
     0
  3
____ . . ____ . . ____ . . ____ . . ____ . . ____ . .
 72
    65
 73
     6
 40
1.25
 49
0.5
 49
-0.25
 49
0.0
 49
-0.25
 49
0.0
 49
-0.25
  0
LTYPE
  2
PHANTOM
 70
     0
  3
_____  _  _  _____  _  _  _____  _  _  _____  _  _  _
 72
    65
 73
     6
 40
3.8
 49
2.25
 49
-0.35
 49
0.25
 49
-0.35
 49
0.25
 49
-0.35
  0
ENDTAB
  0
TABLE
  2
LAYER
 70
     2
  0
LAYER
  2
0
 70
     0
 62
     7
  6
CONTINUOUS
  0
LAYER
  2
DEFPOINTS
 70
    64
 62
     7
  6
CONTINUOUS
  0
ENDTAB
  0
TABLE
  2
STYLE
 70
     2
  0
STYLE
  2
STANDARD
 70
     0
 40
0.0
 41
1.0
 50
0.0
 71
     0
 42
2.0
  3
TXT
  4

  0
STYLE
  2
TIMES_NEW_ROMAN
 70
    64
 40
0.0
 41
1.0
 50
0.0
 71
     0
 42
2.0
  3
TIMES.TTF
  4

  0
ENDTAB
  0
TABLE
  2
VIEW
 70
     0
  0
ENDTAB
  0
TABLE
  2
UCS
 70
     0
  0
ENDTAB
  0
TABLE
  2
APPID
 70
     3
  0
APPID
  2
ACAD
 70
     0
  0
APPID
  2
MSCAD_PRO_MSI
 70
     0
  0
APPID
  2
FCAD
 70
    64
  0
ENDTAB
  0
TABLE
  2
DIMSTYLE
 70
     2
  0
DIMSTYLE
  2
STANDARD
 70
     0
  3

  4

  5

  6

  7

 40
1.0
 41
0.18
 42
0.0625
 43
0.38
 44
0.18
 45
0.0
 46
0.0
 47
0.0
 48
0.0
 71
     0
 72
     0
 73
     1
 74
     1
 75
     0
 76
     0
 77
     0
 78
     0
140
0.18
141
0.09
142
0.0
143
25.4
144
1.0
145
0.0
146
1.0
147
0.09
170
     0
171
     2
172
     0
173
     0
174
     0
175
     0
176
     0
177
     0
178
     0
  0
DIMSTYLE
  2
1-40
 70
    64
  3

  4

  5

  6

  7

 40
16.0
 41
0.18
 42
0.0625
 43
0.38
 44
0.18
 45
0.0
 46
0.0
 47
0.0
 48
0.0
 71
     0
 72
     0
 73
     1
 74
     1
 75
     0
 76
     0
 77
     0
 78
     4
140
0.18
141
0.09
142
0.0
143
25.4
144
1.0
145
0.0
146
1.0
147
0.09
170
     0
171
     2
172
     0
173
     0
174
     0
175
     0
176
   256
177
   256
178
   256
  0
ENDTAB
  0
ENDSEC
  0
SECTION
  2
BLOCKS
  0
BLOCK
  8
0
  5
79EF
  2
DUMP_TK_SIDE
 70
    64
 10
0.0
 20
0.0
 30
0.0
  3
Dump TK_Side
  0
LINE
  8
0
  6
CONTINUOUS
 62
     1
  5
4AAE
 10
0.535283
 20
2.154885
 30
0.0
 11
0.535283
 21
-2.283031
 31
0.0
  0
LINE
  8
0
  6
CONTINUOUS
 62
     1
  5
4AAF
 10
1.024579
 20
1.581793
 30
0.0
 11
1.024579
 21
-1.716691
 31
0.0
  0
LINE
  8
0
  6
CONTINUOUS
 62
     1
  5
4AB0
 10
3.32157
 20
1.581793
 30
0.0
 11
3.32157
 21
-1.716691
 31
0.0
  0
LINE
  8
0
  6
CONTINUOUS
 62
     1
  5
4AB1
 10
2.946938
 20
-1.716691
 30
0.0
 11
2.946938
 21
1.581793
 31
0.0
  0
LINE
  8
0
  6
CONTINUOUS
 62
     1
  5
4AB2
 10
5.810117
 20
1.581793
 30
0.0
 11
5.810117
 21
-1.716691
 31
0.0
  0
LINE
  8
0
  6
CONTINUOUS
 62
     1
  5
4AB3
 10
5.435485
 20
-1.716691
 30
0.0
 11
5.435485
 21
1.581793
 31
0.0
  0
LINE
  8
0
  6
CONTINUOUS
 62
     1
  5
4AB4
 10
8.248816
 20
1.581793
 30
0.0
 11
8.248816
 21
-1.716691
 31
0.0
  0
LINE
  8
0
  6
CONTINUOUS
 62
     1
  5
4AB5
 10
7.874184
 20
-1.716691
 30
0.0
 11
7.874184
 21
1.581793
 31
0.0
  0
LINE
  8
0
  6
CONTINUOUS
 62
     1
  5
4AB6
 10
10.738068
 20
1.581793
 30
0.0
 11
10.738068
 21
-1.716691
 31
0.0
  0
LINE
  8
0
  6
CONTINUOUS
 62
     1
  5
4AB7
 10
10.363436
 20
-1.716691
 30
0.0
 11
10.363436
 21
1.581793
 31
0.0
  0
LINE
  8
0
  6
CONTINUOUS
 62
     1
  5
4AB8
 10
12.852984
 20
1.561952
 30
0.0
 11
12.852984
 21
-1.69685
 31
0.0
  0
LINE
  8
0
 62
     1
  5
4AB9
 10
14.340272
 20
-1.076769
 30
0.0
 11
15.518932
 21
-2.067278
 31
0.0
  0
LINE
  8
0
  6
CONTINUOUS
 62
     7
  5
4ABA
 10
-5.872191
 20
-0.194228
 30
0.0
 11
-5.872191
 21
-2.712525
 31
0.0
  0
LINE
  8
0
  6
CONTINUOUS
 62
     7
  5
4ABB
 10
-5.033152
 20
-0.115085
 30
0.0
 11
-5.033152
 21
-2.288742
 31
0.0
  0
LINE
  8
0
  6
CONTINUOUS
 62
     7
  5
4ABC
 10
-2.071082
 20
0.503428
 30
0.0
 11
-2.071082
 21
-2.288742
 31
0.0
  0
LINE
  8
0
  6
CONTINUOUS
 62
     7
  5
4ABD
 10
-10.093612
 20
-2.322426
 30
0.0
 11
-10.093612
 21
-1.133487
 31
0.0
  0
LINE
  8
0
  6
CONTINUOUS
 62
     7
  5
4ABE
 10
-1.599521
 20
1.726095
 30
0.0
 11
-1.599521
 21
-2.335072
 31
0.0
  0
LINE
  8
0
  6
CONTINUOUS
 62
     7
  5
4ABF
 10
-1.423225
 20
-2.309625
 30
0.0
 11
-1.423225
 21
1.449075
 31
0.0
  0
LINE
  8
0
  6
CONTINUOUS
 62
     7
  5
4AC0
 10
-0.470844
 20
-2.289784
 30
0.0
 11
-0.470844
 21
1.429234
 31
0.0
  0
CIRCLE
  8
0
  6
CONTINUOUS
 62
     7
  5
4AC1
 10
-7.719163
 20
-4.391256
 30
0.0
 40
1.659742
  0
ARC
  8
0
  6
CONTINUOUS
 62
     7
  5
4AC2
 10
-7.719163
 20
-4.391256
 30
0.0
 40
1.739792
 50
0.0
 51
180.0
  0
ARC
  8
0
  6
CONTINUOUS
 62
     7
  5
4AC3
 10
-7.719163
 20
-4.391256
 30
0.0
 40
1.739792
 50
180.0
 51
0.0
  0
LINE
  8
0
  6
CONTINUOUS
 62
     7
  5
4AC4
 10
-8.464716
 20
-2.819306
 30
0.0
 11
-10.219163
 21
-2.819306
 31
0.0
  0
LINE
  8
0
 62
     7
  5
4AC5
 10
-9.116658
 20
-2.028046
 30
0.0
 11
-6.321669
 21
-2.028046
 31
0.0
  0
LINE
  8
0
 62
     7
  5
4AC6
 10
-9.04134
 20
-2.444713
 30
0.0
 11
-6.396987
 21
-2.444713
 31
0.0
  0
LINE
  8
0
 62
     7
  5
4AC7
 10
-10.093612
 20
-1.838029
 30
0.0
 11
-5.872191
 21
-1.838029
 31
0.0
  0
LINE
  8
0
  6
CONTINUOUS
 62
     7
  5
4AC8
 10
-9.878913
 20
-3.682529
 30
0.0
 11
-9.308056
 21
-3.682529
 31
0.0
  0
ARC
  8
0
  6
CONTINUOUS
 62
     7
  5
4AC9
 10
-9.617421
 20
-2.322426
 30
0.0
 40
0.47619
 50
180.0
 51
270.0
  0
LINE
  8
0
  6
CONTINUOUS
 62
     7
  5
4ACA
 10
-9.878913
 20
-4.192384
 30
0.0
 11
-10.219163
 21
-4.192384
 31
0.0
  0
LINE
  8
0
  6
CONTINUOUS
 62
     7
  5
4ACB
 10
-10.219163
 20
-4.192384
 30
0.0
 11
-10.219163
 21
-2.819306
 31
0.0
  0
LINE
  8
0
  6
CONTINUOUS
 62
     7
  5
4ACC
 10
-9.878913
 20
-4.192384
 30
0.0
 11
-9.878913
 21
-2.819306
 31
0.0
  0
LINE
  8
0
 62
     7
  5
4ACD
 10
-9.636256
 20
-2.819306
 30
0.0
 11
-9.116658
 21
-2.028046
 31
0.0
  0
LINE
  8
0
 62
     7
  5
4ACE
 10
-9.287325
 20
-2.819306
 30
0.0
 11
-9.04134
 21
-2.444713
 31
0.0
  0
LINE
  8
0
  6
CONTINUOUS
 62
     1
  5
4ACF
 10
0.535283
 20
-1.716691
 30
0.0
 11
12.833143
 21
-1.716691
 31
0.0
  0
LINE
  8
0
  6
CONTINUOUS
 62
     1
  5
4AD0
 10
0.555125
 20
-2.302872
 30
0.0
 11
13.095251
 21
-2.302872
 31
0.0
  0
LINE
  8
0
  6
CONTINUOUS
 62
     7
  5
4AD1
 10
13.42163
 20
-2.819306
 30
0.0
 11
-5.802071
 21
-2.819306
 31
0.0
  0
LINE
  8
0
  6
CONTINUOUS
 62
     7
  5
4AD2
 10
-0.372963
 20
-3.682529
 30
0.0
 11
6.927606
 21
-3.682529
 31
0.0
  0
LINE
  8
0
  6
CONTINUOUS
 62
     7
  5
4AD3
 10
-0.708939
 20
-5.236629
 30
0.0
 11
-4.672604
 21
-5.236629
 31
0.0
  0
LINE
  8
0
  6
CONTINUOUS
 62
     7
  5
4AD4
 10
-0.490685
 20
-2.309625
 30
0.0
 11
-1.423225
 21
-2.309625
 31
0.0
  0
LINE
  8
0
  6
CONTINUOUS
 62
     7
  5
4AD5
 10
-4.795056
 20
-2.526837
 30
0.0
 11
-2.309177
 21
-2.526837
 31
0.0
  0
ARC
  8
0
  6
CONTINUOUS
 62
     7
  5
4AD6
 10
-2.309177
 20
-2.288742
 30
0.0
 40
0.238095
 50
270.0
 51
0.0
  0
ARC
  8
0
  6
CONTINUOUS
 62
     7
  5
4AD7
 10
-4.795056
 20
-2.288742
 30
0.0
 40
0.238095
 50
180.0
 51
270.0
  0
CIRCLE
  8
0
  6
CONTINUOUS
 62
     7
  5
4AD8
 10
-7.719163
 20
-4.391256
 30
0.0
 40
0.579934
  0
LINE
  8
0
  6
CONTINUOUS
 62
     7
  5
4AD9
 10
-8.227365
 20
-3.908197
 30
0.0
 11
-8.030238
 21
-3.764962
 31
0.0
  0
ARC
  8
0
  6
CONTINUOUS
 62
     7
  5
4ADA
 10
-8.147171
 20
-3.811299
 30
0.0
 40
0.125779
 50
21.616847
 51
230.388081
  0
LINE
  8
0
  6
CONTINUOUS
 62
     7
  5
4ADB
 10
-8.41425
 20
-4.299163
 30
0.0
 11
-8.338952
 21
-4.067417
 31
0.0
  0
ARC
  8
0
  6
CONTINUOUS
 62
     7
  5
4ADC
 10
-8.406315
 20
-4.173636
 30
0.0
 40
0.125778
 50
57.617479
 51
266.382954
  0
LINE
  8
0
  6
CONTINUOUS
 62
     7
  5
4ADD
 10
-8.335627
 20
-4.725307
 30
0.0
 11
-8.410924
 21
-4.493571
 31
0.0
  0
ARC
  8
0
  6
CONTINUOUS
 62
     7
  5
4ADE
 10
-8.402998
 20
-4.619097
 30
0.0
 40
0.125776
 50
93.612969
 51
302.388116
  0
LINE
  8
0
  6
CONTINUOUS
 62
     7
  5
4ADF
 10
-8.02154
 20
-5.023856
 30
0.0
 11
-8.218673
 21
-4.880632
 31
0.0
  0
ARC
  8
0
  6
CONTINUOUS
 62
     7
  5
4AE0
 10
-8.138476
 20
-4.977528
 30
0.0
 40
0.125779
 50
129.613084
 51
338.387405
  0
LINE
  8
0
  6
CONTINUOUS
 62
     7
  5
4AE1
 10
-7.591956
 20
-5.080772
 30
0.0
 11
-7.835626
 21
-5.080772
 31
0.0
  0
ARC
  8
0
  6
CONTINUOUS
 62
     7
  5
4AE2
 10
-7.713791
 20
-5.112027
 30
0.0
 40
0.12578
 50
165.611856
 51
14.388144
  0
LINE
  8
0
  6
CONTINUOUS
 62
     7
  5
4AE3
 10
-7.210961
 20
-4.874315
 30
0.0
 11
-7.408089
 21
-5.017539
 31
0.0
  0
ARC
  8
0
  6
CONTINUOUS
 62
     7
  5
4AE4
 10
-7.291154
 20
-4.971213
 30
0.0
 40
0.125778
 50
201.611993
 51
50.388962
  0
LINE
  8
0
  6
CONTINUOUS
 62
     7
  5
4AE5
 10
-7.024082
 20
-4.483349
 30
0.0
 11
-7.09938
 21
-4.715084
 31
0.0
  0
ARC
  8
0
  6
CONTINUOUS
 62
     7
  5
4AE6
 10
-7.032009
 20
-4.608874
 30
0.0
 40
0.125776
 50
237.612167
 51
86.386748
  0
LINE
  8
0
  6
CONTINUOUS
 62
     7
  5
4AE7
 10
-7.1027
 20
-4.057195
 30
0.0
 11
-7.027402
 21
-4.288941
 31
0.0
  0
ARC
  8
0
  6
CONTINUOUS
 62
     7
  5
4AE8
 10
-7.035333
 20
-4.163412
 30
0.0
 40
0.125779
 50
273.615096
 51
122.384471
  0
LINE
  8
0
  6
CONTINUOUS
 62
     7
  5
4AE9
 10
-7.416787
 20
-3.758645
 30
0.0
 11
-7.219654
 21
-3.90188
 31
0.0
  0
ARC
  8
0
  6
CONTINUOUS
 62
     7
  5
4AEA
 10
-7.299853
 20
-3.804984
 30
0.0
 40
0.125781
 50
309.614012
 51
158.382504
  0
LINE
  8
0
  6
CONTINUOUS
 62
     7
  5
4AEB
 10
-7.84637
 20
-3.70173
 30
0.0
 11
-7.602706
 21
-3.70173
 31
0.0
  0
ARC
  8
0
  6
CONTINUOUS
 62
     7
  5
4AEC
 10
-7.724538
 20
-3.670481
 30
0.0
 40
0.125776
 50
345.614387
 51
194.385613
  0
LINE
  8
0
  6
CONTINUOUS
 62
     7
  5
4AED
 10
-7.731766
 20
-3.898591
 30
0.0
 11
-7.79218
 21
-3.933465
 31
0.0
  0
LINE
  8
0
  6
CONTINUOUS
 62
     7
  5
4AEE
 10
-7.79218
 20
-3.933465
 30
0.0
 11
-7.79218
 21
-4.003224
 31
0.0
  0
LINE
  8
0
  6
CONTINUOUS
 62
     7
  5
4AEF
 10
-7.79218
 20
-4.003224
 30
0.0
 11
-7.731766
 21
-4.038108
 31
0.0
  0
LINE
  8
0
  6
CONTINUOUS
 62
     7
  5
4AF0
 10
-7.731766
 20
-4.038108
 30
0.0
 11
-7.671352
 21
-4.003224
 31
0.0
  0
LINE
  8
0
  6
CONTINUOUS
 62
     7
  5
4AF1
 10
-7.671352
 20
-4.003224
 30
0.0
 11
-7.671352
 21
-3.933465
 31
0.0
  0
LINE
  8
0
  6
CONTINUOUS
 62
     7
  5
4AF2
 10
-7.671352
 20
-3.933465
 30
0.0
 11
-7.731766
 21
-3.898591
 31
0.0
  0
CIRCLE
  8
0
  6
CONTINUOUS
 62
     7
  5
4AF3
 10
-7.731766
 20
-3.96835
 30
0.0
 40
0.025205
  0
LINE
  8
0
  6
CONTINUOUS
 62
     7
  5
4AF4
 10
-7.454491
 20
-3.96835
 30
0.0
 11
-7.514904
 21
-4.003224
 31
0.0
  0
LINE
  8
0
  6
CONTINUOUS
 62
     7
  5
4AF5
 10
-7.514904
 20
-4.003224
 30
0.0
 11
-7.514904
 21
-4.072983
 31
0.0
  0
LINE
  8
0
  6
CONTINUOUS
 62
     7
  5
4AF6
 10
-7.514904
 20
-4.072983
 30
0.0
 11
-7.454491
 21
-4.107867
 31
0.0
  0
LINE
  8
0
  6
CONTINUOUS
 62
     7
  5
4AF7
 10
-7.454491
 20
-4.107867
 30
0.0
 11
-7.394077
 21
-4.072983
 31
0.0
  0
LINE
  8
0
  6
CONTINUOUS
 62
     7
  5
4AF8
 10
-7.394077
 20
-4.072983
 30
0.0
 11
-7.394077
 21
-4.003224
 31
0.0
  0
LINE
  8
0
  6
CONTINUOUS
 62
     7
  5
4AF9
 10
-7.394077
 20
-4.003224
 30
0.0
 11
-7.454491
 21
-3.96835
 31
0.0
  0
CIRCLE
  8
0
  6
CONTINUOUS
 62
     7
  5
4AFA
 10
-7.454491
 20
-4.038108
 30
0.0
 40
0.025205
  0
LINE
  8
0
  6
CONTINUOUS
 62
     7
  5
4AFB
 10
-7.303247
 20
-4.160178
 30
0.0
 11
-7.363661
 21
-4.195063
 31
0.0
  0
LINE
  8
0
  6
CONTINUOUS
 62
     7
  5
4AFC
 10
-7.363661
 20
-4.195063
 30
0.0
 11
-7.363661
 21
-4.264822
 31
0.0
  0
LINE
  8
0
  6
CONTINUOUS
 62
     7
  5
4AFD
 10
-7.363661
 20
-4.264822
 30
0.0
 11
-7.303247
 21
-4.299696
 31
0.0
  0
LINE
  8
0
  6
CONTINUOUS
 62
     7
  5
4AFE
 10
-7.303247
 20
-4.299696
 30
0.0
 11
-7.242839
 21
-4.264822
 31
0.0
  0
LINE
  8
0
  6
CONTINUOUS
 62
     7
  5
4AFF
 10
-7.242839
 20
-4.264822
 30
0.0
 11
-7.242839
 21
-4.195063
 31
0.0
  0
LINE
  8
0
  6
CONTINUOUS
 62
     7
  5
4B00
 10
-7.242839
 20
-4.195063
 30
0.0
 11
-7.303247
 21
-4.160178
 31
0.0
  0
CIRCLE
  8
0
  6
CONTINUOUS
 62
     7
  5
4B01
 10
-7.303247
 20
-4.229937
 30
0.0
 40
0.025205
  0
LINE
  8
0
  6
CONTINUOUS
 62
     7
  5
4B02
 10
-7.311653
 20
-4.447932
 30
0.0
 11
-7.372061
 21
-4.482816
 31
0.0
  0
LINE
  8
0
  6
CONTINUOUS
 62
     7
  5
4B03
 10
-7.372061
 20
-4.482816
 30
0.0
 11
-7.372061
 21
-4.552575
 31
0.0
  0
LINE
  8
0
  6
CONTINUOUS
 62
     7
  5
4B04
 10
-7.372061
 20
-4.552575
 30
0.0
 11
-7.311653
 21
-4.587449
 31
0.0
  0
LINE
  8
0
  6
CONTINUOUS
 62
     7
  5
4B05
 10
-7.311653
 20
-4.587449
 30
0.0
 11
-7.251239
 21
-4.552575
 31
0.0
  0
LINE
  8
0
  6
CONTINUOUS
 62
     7
  5
4B06
 10
-7.251239
 20
-4.552575
 30
0.0
 11
-7.251239
 21
-4.482816
 31
0.0
  0
LINE
  8
0
  6
CONTINUOUS
 62
     7
  5
4B07
 10
-7.251239
 20
-4.482816
 30
0.0
 11
-7.311653
 21
-4.447932
 31
0.0
  0
CIRCLE
  8
0
  6
CONTINUOUS
 62
     7
  5
4B08
 10
-7.311653
 20
-4.517691
 30
0.0
 40
0.025211
  0
LINE
  8
0
  6
CONTINUOUS
 62
     7
  5
4B09
 10
-7.454491
 20
-4.674645
 30
0.0
 11
-7.514904
 21
-4.70953
 31
0.0
  0
LINE
  8
0
  6
CONTINUOUS
 62
     7
  5
4B0A
 10
-7.514904
 20
-4.70953
 30
0.0
 11
-7.514904
 21
-4.779288
 31
0.0
  0
LINE
  8
0
  6
CONTINUOUS
 62
     7
  5
4B0B
 10
-7.514904
 20
-4.779288
 30
0.0
 11
-7.454491
 21
-4.814163
 31
0.0
  0
LINE
  8
0
  6
CONTINUOUS
 62
     7
  5
4B0C
 10
-7.454491
 20
-4.814163
 30
0.0
 11
-7.394077
 21
-4.779288
 31
0.0
  0
LINE
  8
0
  6
CONTINUOUS
 62
     7
  5
4B0D
 10
-7.394077
 20
-4.779288
 30
0.0
 11
-7.394077
 21
-4.70953
 31
0.0
  0
LINE
  8
0
  6
CONTINUOUS
 62
     7
  5
4B0E
 10
-7.394077
 20
-4.70953
 30
0.0
 11
-7.454491
 21
-4.674645
 31
0.0
  0
CIRCLE
  8
0
  6
CONTINUOUS
 62
     7
  5
4B0F
 10
-7.454491
 20
-4.744404
 30
0.0
 40
0.025205
  0
LINE
  8
0
  6
CONTINUOUS
 62
     7
  5
4B10
 10
-7.723366
 20
-4.761841
 30
0.0
 11
-7.78378
 21
-4.796725
 31
0.0
  0
LINE
  8
0
  6
CONTINUOUS
 62
     7
  5
4B11
 10
-7.78378
 20
-4.796725
 30
0.0
 11
-7.78378
 21
-4.866484
 31
0.0
  0
LINE
  8
0
  6
CONTINUOUS
 62
     7
  5
4B12
 10
-7.78378
 20
-4.866484
 30
0.0
 11
-7.723366
 21
-4.901358
 31
0.0
  0
LINE
  8
0
  6
CONTINUOUS
 62
     7
  5
4B13
 10
-7.723366
 20
-4.901358
 30
0.0
 11
-7.662952
 21
-4.866484
 31
0.0
  0
LINE
  8
0
  6
CONTINUOUS
 62
     7
  5
4B14
 10
-7.662952
 20
-4.866484
 30
0.0
 11
-7.662952
 21
-4.796725
 31
0.0
  0
LINE
  8
0
  6
CONTINUOUS
 62
     7
  5
4B15
 10
-7.662952
 20
-4.796725
 30
0.0
 11
-7.723366
 21
-4.761841
 31
0.0
  0
CIRCLE
  8
0
  6
CONTINUOUS
 62
     7
  5
4B16
 10
-7.723366
 20
-4.8316
 30
0.0
 40
0.025205
  0
LINE
  8
0
  6
CONTINUOUS
 62
     7
  5
4B17
 10
-7.992241
 20
-4.657208
 30
0.0
 11
-8.052655
 21
-4.692082
 31
0.0
  0
LINE
  8
0
  6
CONTINUOUS
 62
     7
  5
4B18
 10
-8.052655
 20
-4.692082
 30
0.0
 11
-8.052655
 21
-4.761841
 31
0.0
  0
LINE
  8
0
  6
CONTINUOUS
 62
     7
  5
4B19
 10
-8.052655
 20
-4.761841
 30
0.0
 11
-7.992241
 21
-4.796725
 31
0.0
  0
LINE
  8
0
  6
CONTINUOUS
 62
     7
  5
4B1A
 10
-7.992241
 20
-4.796725
 30
0.0
 11
-7.931828
 21
-4.761841
 31
0.0
  0
LINE
  8
0
  6
CONTINUOUS
 62
     7
  5
4B1B
 10
-7.931828
 20
-4.761841
 30
0.0
 11
-7.931828
 21
-4.692082
 31
0.0
  0
LINE
  8
0
  6
CONTINUOUS
 62
     7
  5
4B1C
 10
-7.931828
 20
-4.692082
 30
0.0
 11
-7.992241
 21
-4.657208
 31
0.0
  0
CIRCLE
  8
0
  6
CONTINUOUS
 62
     7
  5
4B1D
 10
-7.992241
 20
-4.726967
 30
0.0
 40
0.025205
  0
LINE
  8
0
  6
CONTINUOUS
 62
     7
  5
4B1E
 10
-8.122503
 20
-4.452578
 30
0.0
 11
-8.182916
 21
-4.487452
 31
0.0
  0
LINE
  8
0
  6
CONTINUOUS
 62
     7
  5
4B1F
 10
-8.182916
 20
-4.487452
 30
0.0
 11
-8.182916
 21
-4.557211
 31
0.0
  0
LINE
  8
0
  6
CONTINUOUS
 62
     7
  5
4B20
 10
-8.182916
 20
-4.557211
 30
0.0
 11
-8.122503
 21
-4.592096
 31
0.0
  0
LINE
  8
0
  6
CONTINUOUS
 62
     7
  5
4B21
 10
-8.122503
 20
-4.592096
 30
0.0
 11
-8.062094
 21
-4.557211
 31
0.0
  0
LINE
  8
0
  6
CONTINUOUS
 62
     7
  5
4B22
 10
-8.062094
 20
-4.557211
 30
0.0
 11
-8.062094
 21
-4.487452
 31
0.0
  0
LINE
  8
0
  6
CONTINUOUS
 62
     7
  5
4B23
 10
-8.062094
 20
-4.487452
 30
0.0
 11
-8.122503
 21
-4.452578
 31
0.0
  0
CIRCLE
  8
0
  6
CONTINUOUS
 62
     7
  5
4B24
 10
-8.122503
 20
-4.522337
 30
0.0
 40
0.025205
  0
LINE
  8
0
  6
CONTINUOUS
 62
     7
  5
4B25
 10
-8.112401
 20
-4.16945
 30
0.0
 11
-8.172809
 21
-4.204324
 31
0.0
  0
LINE
  8
0
  6
CONTINUOUS
 62
     7
  5
4B26
 10
-8.172809
 20
-4.204324
 30
0.0
 11
-8.172809
 21
-4.274083
 31
0.0
  0
LINE
  8
0
  6
CONTINUOUS
 62
     7
  5
4B27
 10
-8.172809
 20
-4.274083
 30
0.0
 11
-8.112401
 21
-4.308957
 31
0.0
  0
LINE
  8
0
  6
CONTINUOUS
 62
     7
  5
4B28
 10
-8.112401
 20
-4.308957
 30
0.0
 11
-8.051987
 21
-4.274083
 31
0.0
  0
LINE
  8
0
  6
CONTINUOUS
 62
     7
  5
4B29
 10
-8.051987
 20
-4.274083
 30
0.0
 11
-8.051987
 21
-4.204324
 31
0.0
  0
LINE
  8
0
  6
CONTINUOUS
 62
     7
  5
4B2A
 10
-8.051987
 20
-4.204324
 30
0.0
 11
-8.112401
 21
-4.16945
 31
0.0
  0
CIRCLE
  8
0
  6
CONTINUOUS
 62
     7
  5
4B2B
 10
-8.112401
 20
-4.239209
 30
0.0
 40
0.025211
  0
LINE
  8
0
  6
CONTINUOUS
 62
     7
  5
4B2C
 10
-7.950727
 20
-3.959725
 30
0.0
 11
-8.01114
 21
-3.994599
 31
0.0
  0
LINE
  8
0
  6
CONTINUOUS
 62
     7
  5
4B2D
 10
-8.01114
 20
-3.994599
 30
0.0
 11
-8.01114
 21
-4.064358
 31
0.0
  0
LINE
  8
0
  6
CONTINUOUS
 62
     7
  5
4B2E
 10
-8.01114
 20
-4.064358
 30
0.0
 11
-7.950727
 21
-4.099232
 31
0.0
  0
LINE
  8
0
  6
CONTINUOUS
 62
     7
  5
4B2F
 10
-7.950727
 20
-4.099232
 30
0.0
 11
-7.890313
 21
-4.064358
 31
0.0
  0
LINE
  8
0
  6
CONTINUOUS
 62
     7
  5
4B30
 10
-7.890313
 20
-4.064358
 30
0.0
 11
-7.890313
 21
-3.994599
 31
0.0
  0
LINE
  8
0
  6
CONTINUOUS
 62
     7
  5
4B31
 10
-7.890313
 20
-3.994599
 30
0.0
 11
-7.950727
 21
-3.959725
 31
0.0
  0
CIRCLE
  8
0
  6
CONTINUOUS
 62
     7
  5
4B32
 10
-7.950727
 20
-4.029473
 30
0.0
 40
0.025205
  0
LINE
  8
0
  6
CONTINUOUS
 62
     7
  5
4B33
 10
-4.988739
 20
-2.821641
 30
0.0
 11
-1.954016
 21
-2.821641
 31
0.0
  0
LINE
  8
0
  6
CONTINUOUS
 62
     7
  5
4B34
 10
-1.954016
 20
-5.236629
 30
0.0
 11
-4.672604
 21
-5.236629
 31
0.0
  0
LINE
  8
0
  6
CONTINUOUS
 62
     7
  5
4B35
 10
-2.34926
 20
-1.737884
 30
0.0
 11
-2.34926
 21
-1.989973
 31
0.0
  0
LINE
  8
0
  6
CONTINUOUS
 62
     7
  5
4B36
 10
-2.34926
 20
-1.989973
 30
0.0
 11
-2.785277
 21
-1.989973
 31
0.0
  0
LINE
  8
0
  6
CONTINUOUS
 62
     7
  5
4B37
 10
-2.785277
 20
-1.989973
 30
0.0
 11
-2.785277
 21
-1.737884
 31
0.0
  0
LINE
  8
0
  6
CONTINUOUS
 62
     7
  5
4B38
 10
-2.785277
 20
-1.737884
 30
0.0
 11
-2.34926
 21
-1.737884
 31
0.0
  0
LINE
  8
0
  6
CONTINUOUS
 62
     7
  5
4B39
 10
-2.34926
 20
-1.989973
 30
0.0
 11
-2.34926
 21
-2.200046
 31
0.0
  0
LINE
  8
0
  6
CONTINUOUS
 62
     7
  5
4B3A
 10
-2.34926
 20
-2.200046
 30
0.0
 11
-2.785277
 21
-2.200046
 31
0.0
  0
LINE
  8
0
  6
CONTINUOUS
 62
     7
  5
4B3B
 10
-2.785277
 20
-2.200046
 30
0.0
 11
-2.785277
 21
-1.989973
 31
0.0
  0
LINE
  8
0
  6
CONTINUOUS
 62
     7
  5
4B3C
 10
-2.785277
 20
-1.989973
 30
0.0
 11
-2.34926
 21
-1.989973
 31
0.0
  0
ARC
  8
0
  6
CONTINUOUS
 62
     7
  5
4B3D
 10
-7.719163
 20
-4.391256
 30
0.0
 40
0.289967
 50
0.0
 51
180.0
  0
ARC
  8
0
  6
CONTINUOUS
 62
     7
  5
4B3E
 10
-7.719163
 20
-4.391256
 30
0.0
 40
0.289967
 50
180.0
 51
0.0
  0
ARC
  8
0
  6
CONTINUOUS
 62
     7
  5
4B3F
 10
-7.719163
 20
-4.391256
 30
0.0
 40
1.159858
 50
0.0
 51
180.0
  0
ARC
  8
0
  6
CONTINUOUS
 62
     7
  5
4B40
 10
-7.719163
 20
-4.391256
 30
0.0
 40
1.159858
 50
180.0
 51
0.0
  0
LINE
  8
0
  6
CONTINUOUS
 62
     7
  5
4B41
 10
-6.13027
 20
-3.682529
 30
0.0
 11
-4.98298
 21
-3.682529
 31
0.0
  0
LINE
  8
0
  6
CONTINUOUS
 62
     7
  5
4B42
 10
-6.151002
 20
-2.819306
 30
0.0
 11
-6.973611
 21
-2.819306
 31
0.0
  0
ARC
  8
0
 62
     7
  5
4B43
 10
-2.666649
 20
-4.027967
 30
0.0
 40
2.341948
 50
148.929506
 51
211.070494
  0
LINE
  8
0
 62
     7
  5
4B44
 10
-4.308353
 20
-3.27188
 30
0.0
 11
-2.791553
 21
-3.27188
 31
0.0
  0
LINE
  8
0
 62
     7
  5
4B45
 10
-2.791553
 20
-3.27188
 30
0.0
 11
-2.791553
 21
-4.665508
 31
0.0
  0
LINE
  8
0
 62
     7
  5
4B46
 10
-2.791553
 20
-4.665508
 30
0.0
 11
-4.328195
 21
-4.665508
 31
0.0
  0
LINE
  8
0
 62
     7
  5
4B47
 10
-4.328195
 20
-4.665508
 30
0.0
 11
-4.328195
 21
-3.291721
 31
0.0
  0
LINE
  8
0
 62
     7
  5
4B48
 10
-4.328195
 20
-3.291721
 30
0.0
 11
-4.308353
 21
-3.27188
 31
0.0
  0
CIRCLE
  8
0
 62
     7
  5
4B49
 10
-2.303025
 20
-3.174237
 30
0.0
 40
0.257587
  0
LINE
  8
0
 62
     7
  5
4B4A
 10
-1.619087
 20
-2.819306
 30
0.0
 11
-1.619087
 21
-5.236629
 31
0.0
  0
LINE
  8
0
 62
     7
  5
4B4B
 10
-1.858909
 20
-2.819306
 30
0.0
 11
-1.858909
 21
-5.236629
 31
0.0
  0
LINE
  8
0
  6
CONTINUOUS
 62
     7
  5
4B4C
 10
-1.932855
 20
-2.668406
 30
0.0
 11
-5.901163
 21
-2.668406
 31
0.0
  0
ARC
  8
0
  6
CONTINUOUS
 62
     7
  5
4B4D
 10
-1.932855
 20
-2.335072
 30
0.0
 40
0.333333
 50
270.0
 51
0.0
  0
LINE
  8
0
 62
     7
  5
4B4E
 10
-5.546494
 20
-3.208505
 30
0.0
 11
-6.321669
 21
-2.028046
 31
0.0
  0
LINE
  8
0
 62
     7
  5
4B4F
 10
-5.895425
 20
-3.208505
 30
0.0
 11
-6.396987
 21
-2.444713
 31
0.0
  0
LINE
  8
0
 62
     7
  5
4B50
 10
-5.895425
 20
-3.208505
 30
0.0
 11
-5.546494
 21
-3.208505
 31
0.0
  0
LINE
  8
0
  6
CONTINUOUS
 62
     1
  5
4B51
 10
1.159574
 20
-2.802426
 30
0.0
 11
0.65509
 21
-2.302872
 31
0.0
  0
LINE
  8
0
  6
CONTINUOUS
 62
     7
  5
4B52
 10
-0.470844
 20
-2.289784
 30
0.0
 11
-0.490685
 21
-2.309625
 31
0.0
  0
LINE
  8
0
  6
CONTINUOUS
 62
     7
  5
4B53
 10
-1.18513
 20
-2.819306
 30
0.0
 11
-1.18513
 21
-2.309625
 31
0.0
  0
LINE
  8
0
  6
CONTINUOUS
 62
     7
  5
4B54
 10
-0.708939
 20
-2.819306
 30
0.0
 11
-0.708939
 21
-2.309625
 31
0.0
  0
LINE
  8
0
  6
CONTINUOUS
 62
     7
  5
4B55
 10
-0.372963
 20
-5.216788
 30
0.0
 11
-0.392805
 21
-5.236629
 31
0.0
  0
ARC
  8
0
 62
     7
  5
4B56
 10
-2.714895
 20
-4.027967
 30
0.0
 40
2.341948
 50
328.929506
 51
31.070494
  0
LINE
  8
0
  6
CONTINUOUS
 62
     7
  5
4B57
 10
0.555125
 20
-2.302872
 30
0.0
 11
0.535283
 21
-2.283031
 31
0.0
  0
LINE
  8
0
  6
CONTINUOUS
 62
     7
  5
4B58
 10
13.634068
 20
-3.682529
 30
0.0
 11
15.275863
 21
-3.682529
 31
0.0
  0
LINE
  8
0
 62
     7
  5
4B59
 10
13.492263
 20
-2.931071
 30
0.0
 11
15.518932
 21
-2.931071
 31
0.0
  0
LINE
  8
0
  6
CONTINUOUS
 62
     1
  5
4B5A
 10
12.852984
 20
-1.716691
 30
0.0
 11
12.330935
 21
-1.716691
 31
0.0
  0
LINE
  8
0
 62
     1
  5
4B5B
 10
13.095251
 20
-2.302872
 30
0.0
 11
13.492263
 21
-2.931071
 31
0.0
  0
LINE
  8
0
  6
CONTINUOUS
 62
     1
  5
4B5C
 10
12.833143
 20
-1.716691
 30
0.0
 11
12.852984
 21
-1.69685
 31
0.0
  0
CIRCLE
  8
0
  6
CONTINUOUS
 62
     7
  5
4B5D
 10
8.383241
 20
-4.474103
 30
0.0
 40
0.92053
  0
CIRCLE
  8
0
  6
CONTINUOUS
 62
     7
  5
4B5E
 10
8.383241
 20
-4.474103
 30
0.0
 40
0.552318
  0
LINE
  8
0
  6
CONTINUOUS
 62
     7
  5
4B5F
 10
8.371239
 20
-4.004898
 30
0.0
 11
8.313702
 21
-4.038112
 31
0.0
  0
LINE
  8
0
  6
CONTINUOUS
 62
     7
  5
4B60
 10
8.313702
 20
-4.038112
 30
0.0
 11
8.313702
 21
-4.104549
 31
0.0
  0
LINE
  8
0
  6
CONTINUOUS
 62
     7
  5
4B61
 10
8.313702
 20
-4.104549
 30
0.0
 11
8.371239
 21
-4.137772
 31
0.0
  0
LINE
  8
0
  6
CONTINUOUS
 62
     7
  5
4B62
 10
8.371239
 20
-4.137772
 30
0.0
 11
8.428776
 21
-4.104549
 31
0.0
  0
LINE
  8
0
  6
CONTINUOUS
 62
     7
  5
4B63
 10
8.428776
 20
-4.104549
 30
0.0
 11
8.428776
 21
-4.038112
 31
0.0
  0
LINE
  8
0
  6
CONTINUOUS
 62
     7
  5
4B64
 10
8.428776
 20
-4.038112
 30
0.0
 11
8.371239
 21
-4.004898
 31
0.0
  0
CIRCLE
  8
0
  6
CONTINUOUS
 62
     7
  5
4B65
 10
8.371239
 20
-4.071335
 30
0.0
 40
0.024005
  0
LINE
  8
0
  6
CONTINUOUS
 62
     7
  5
4B66
 10
8.635311
 20
-4.071335
 30
0.0
 11
8.577774
 21
-4.104549
 31
0.0
  0
LINE
  8
0
  6
CONTINUOUS
 62
     7
  5
4B67
 10
8.577774
 20
-4.104549
 30
0.0
 11
8.577774
 21
-4.170986
 31
0.0
  0
LINE
  8
0
  6
CONTINUOUS
 62
     7
  5
4B68
 10
8.577774
 20
-4.170986
 30
0.0
 11
8.635311
 21
-4.204209
 31
0.0
  0
LINE
  8
0
  6
CONTINUOUS
 62
     7
  5
4B69
 10
8.635311
 20
-4.204209
 30
0.0
 11
8.692848
 21
-4.170986
 31
0.0
  0
LINE
  8
0
  6
CONTINUOUS
 62
     7
  5
4B6A
 10
8.692848
 20
-4.170986
 30
0.0
 11
8.692848
 21
-4.104549
 31
0.0
  0
LINE
  8
0
  6
CONTINUOUS
 62
     7
  5
4B6B
 10
8.692848
 20
-4.104549
 30
0.0
 11
8.635311
 21
-4.071335
 31
0.0
  0
CIRCLE
  8
0
  6
CONTINUOUS
 62
     7
  5
4B6C
 10
8.635311
 20
-4.137772
 30
0.0
 40
0.024005
  0
LINE
  8
0
  6
CONTINUOUS
 62
     7
  5
4B6D
 10
8.779352
 20
-4.254029
 30
0.0
 11
8.721815
 21
-4.287253
 31
0.0
  0
LINE
  8
0
  6
CONTINUOUS
 62
     7
  5
4B6E
 10
8.721815
 20
-4.287253
 30
0.0
 11
8.721815
 21
-4.35369
 31
0.0
  0
LINE
  8
0
  6
CONTINUOUS
 62
     7
  5
4B6F
 10
8.721815
 20
-4.35369
 30
0.0
 11
8.779352
 21
-4.386903
 31
0.0
  0
LINE
  8
0
  6
CONTINUOUS
 62
     7
  5
4B70
 10
8.779352
 20
-4.386903
 30
0.0
 11
8.836884
 21
-4.35369
 31
0.0
  0
LINE
  8
0
  6
CONTINUOUS
 62
     7
  5
4B71
 10
8.836884
 20
-4.35369
 30
0.0
 11
8.836884
 21
-4.287253
 31
0.0
  0
LINE
  8
0
  6
CONTINUOUS
 62
     7
  5
4B72
 10
8.836884
 20
-4.287253
 30
0.0
 11
8.779352
 21
-4.254029
 31
0.0
  0
CIRCLE
  8
0
  6
CONTINUOUS
 62
     7
  5
4B73
 10
8.779352
 20
-4.320466
 30
0.0
 40
0.024005
  0
LINE
  8
0
  6
CONTINUOUS
 62
     7
  5
4B74
 10
8.771347
 20
-4.52808
 30
0.0
 11
8.713815
 21
-4.561304
 31
0.0
  0
LINE
  8
0
  6
CONTINUOUS
 62
     7
  5
4B75
 10
8.713815
 20
-4.561304
 30
0.0
 11
8.713815
 21
-4.627741
 31
0.0
  0
LINE
  8
0
  6
CONTINUOUS
 62
     7
  5
4B76
 10
8.713815
 20
-4.627741
 30
0.0
 11
8.771347
 21
-4.660954
 31
0.0
  0
LINE
  8
0
  6
CONTINUOUS
 62
     7
  5
4B77
 10
8.771347
 20
-4.660954
 30
0.0
 11
8.828884
 21
-4.627741
 31
0.0
  0
LINE
  8
0
  6
CONTINUOUS
 62
     7
  5
4B78
 10
8.828884
 20
-4.627741
 30
0.0
 11
8.828884
 21
-4.561304
 31
0.0
  0
LINE
  8
0
  6
CONTINUOUS
 62
     7
  5
4B79
 10
8.828884
 20
-4.561304
 30
0.0
 11
8.771347
 21
-4.52808
 31
0.0
  0
CIRCLE
  8
0
  6
CONTINUOUS
 62
     7
  5
4B7A
 10
8.771347
 20
-4.594517
 30
0.0
 40
0.02401
  0
LINE
  8
0
  6
CONTINUOUS
 62
     7
  5
4B7B
 10
8.635311
 20
-4.743998
 30
0.0
 11
8.577774
 21
-4.777221
 31
0.0
  0
LINE
  8
0
  6
CONTINUOUS
 62
     7
  5
4B7C
 10
8.577774
 20
-4.777221
 30
0.0
 11
8.577774
 21
-4.843658
 31
0.0
  0
LINE
  8
0
  6
CONTINUOUS
 62
     7
  5
4B7D
 10
8.577774
 20
-4.843658
 30
0.0
 11
8.635311
 21
-4.876871
 31
0.0
  0
LINE
  8
0
  6
CONTINUOUS
 62
     7
  5
4B7E
 10
8.635311
 20
-4.876871
 30
0.0
 11
8.692848
 21
-4.843658
 31
0.0
  0
LINE
  8
0
  6
CONTINUOUS
 62
     7
  5
4B7F
 10
8.692848
 20
-4.843658
 30
0.0
 11
8.692848
 21
-4.777221
 31
0.0
  0
LINE
  8
0
  6
CONTINUOUS
 62
     7
  5
4B80
 10
8.692848
 20
-4.777221
 30
0.0
 11
8.635311
 21
-4.743998
 31
0.0
  0
CIRCLE
  8
0
  6
CONTINUOUS
 62
     7
  5
4B81
 10
8.635311
 20
-4.810434
 30
0.0
 40
0.024005
  0
LINE
  8
0
  6
CONTINUOUS
 62
     7
  5
4B82
 10
8.379239
 20
-4.827041
 30
0.0
 11
8.321702
 21
-4.860265
 31
0.0
  0
LINE
  8
0
  6
CONTINUOUS
 62
     7
  5
4B83
 10
8.321702
 20
-4.860265
 30
0.0
 11
8.321702
 21
-4.926701
 31
0.0
  0
LINE
  8
0
  6
CONTINUOUS
 62
     7
  5
4B84
 10
8.321702
 20
-4.926701
 30
0.0
 11
8.379239
 21
-4.959915
 31
0.0
  0
LINE
  8
0
  6
CONTINUOUS
 62
     7
  5
4B85
 10
8.379239
 20
-4.959915
 30
0.0
 11
8.436776
 21
-4.926701
 31
0.0
  0
LINE
  8
0
  6
CONTINUOUS
 62
     7
  5
4B86
 10
8.436776
 20
-4.926701
 30
0.0
 11
8.436776
 21
-4.860265
 31
0.0
  0
LINE
  8
0
  6
CONTINUOUS
 62
     7
  5
4B87
 10
8.436776
 20
-4.860265
 30
0.0
 11
8.379239
 21
-4.827041
 31
0.0
  0
CIRCLE
  8
0
  6
CONTINUOUS
 62
     7
  5
4B88
 10
8.379239
 20
-4.893478
 30
0.0
 40
0.024005
  0
LINE
  8
0
  6
CONTINUOUS
 62
     7
  5
4B89
 10
8.123167
 20
-4.727391
 30
0.0
 11
8.06563
 21
-4.760604
 31
0.0
  0
LINE
  8
0
  6
CONTINUOUS
 62
     7
  5
4B8A
 10
8.06563
 20
-4.760604
 30
0.0
 11
8.06563
 21
-4.827041
 31
0.0
  0
LINE
  8
0
  6
CONTINUOUS
 62
     7
  5
4B8B
 10
8.06563
 20
-4.827041
 30
0.0
 11
8.123167
 21
-4.860265
 31
0.0
  0
LINE
  8
0
  6
CONTINUOUS
 62
     7
  5
4B8C
 10
8.123167
 20
-4.860265
 30
0.0
 11
8.180704
 21
-4.827041
 31
0.0
  0
LINE
  8
0
  6
CONTINUOUS
 62
     7
  5
4B8D
 10
8.180704
 20
-4.827041
 30
0.0
 11
8.180704
 21
-4.760604
 31
0.0
  0
LINE
  8
0
  6
CONTINUOUS
 62
     7
  5
4B8E
 10
8.180704
 20
-4.760604
 30
0.0
 11
8.123167
 21
-4.727391
 31
0.0
  0
CIRCLE
  8
0
  6
CONTINUOUS
 62
     7
  5
4B8F
 10
8.123167
 20
-4.793828
 30
0.0
 40
0.024005
  0
LINE
  8
0
  6
CONTINUOUS
 62
     7
  5
4B90
 10
7.999109
 20
-4.532505
 30
0.0
 11
7.941572
 21
-4.565719
 31
0.0
  0
LINE
  8
0
  6
CONTINUOUS
 62
     7
  5
4B91
 10
7.941572
 20
-4.565719
 30
0.0
 11
7.941572
 21
-4.632156
 31
0.0
  0
LINE
  8
0
  6
CONTINUOUS
 62
     7
  5
4B92
 10
7.941572
 20
-4.632156
 30
0.0
 11
7.999109
 21
-4.665379
 31
0.0
  0
LINE
  8
0
  6
CONTINUOUS
 62
     7
  5
4B93
 10
7.999109
 20
-4.665379
 30
0.0
 11
8.056641
 21
-4.632156
 31
0.0
  0
LINE
  8
0
  6
CONTINUOUS
 62
     7
  5
4B94
 10
8.056641
 20
-4.632156
 30
0.0
 11
8.056641
 21
-4.565719
 31
0.0
  0
LINE
  8
0
  6
CONTINUOUS
 62
     7
  5
4B95
 10
8.056641
 20
-4.565719
 30
0.0
 11
7.999109
 21
-4.532505
 31
0.0
  0
CIRCLE
  8
0
  6
CONTINUOUS
 62
     7
  5
4B96
 10
7.999109
 20
-4.598942
 30
0.0
 40
0.024005
  0
LINE
  8
0
  6
CONTINUOUS
 62
     7
  5
4B97
 10
8.00873
 20
-4.26286
 30
0.0
 11
7.951198
 21
-4.296073
 31
0.0
  0
LINE
  8
0
  6
CONTINUOUS
 62
     7
  5
4B98
 10
7.951198
 20
-4.296073
 30
0.0
 11
7.951198
 21
-4.36251
 31
0.0
  0
LINE
  8
0
  6
CONTINUOUS
 62
     7
  5
4B99
 10
7.951198
 20
-4.36251
 30
0.0
 11
8.00873
 21
-4.395724
 31
0.0
  0
LINE
  8
0
  6
CONTINUOUS
 62
     7
  5
4B9A
 10
8.00873
 20
-4.395724
 30
0.0
 11
8.066267
 21
-4.36251
 31
0.0
  0
LINE
  8
0
  6
CONTINUOUS
 62
     7
  5
4B9B
 10
8.066267
 20
-4.36251
 30
0.0
 11
8.066267
 21
-4.296073
 31
0.0
  0
LINE
  8
0
  6
CONTINUOUS
 62
     7
  5
4B9C
 10
8.066267
 20
-4.296073
 30
0.0
 11
8.00873
 21
-4.26286
 31
0.0
  0
CIRCLE
  8
0
  6
CONTINUOUS
 62
     7
  5
4B9D
 10
8.00873
 20
-4.329297
 30
0.0
 40
0.02401
  0
LINE
  8
0
  6
CONTINUOUS
 62
     7
  5
4B9E
 10
8.162705
 20
-4.063121
 30
0.0
 11
8.105168
 21
-4.096335
 31
0.0
  0
LINE
  8
0
  6
CONTINUOUS
 62
     7
  5
4B9F
 10
8.105168
 20
-4.096335
 30
0.0
 11
8.105168
 21
-4.162772
 31
0.0
  0
LINE
  8
0
  6
CONTINUOUS
 62
     7
  5
4BA0
 10
8.105168
 20
-4.162772
 30
0.0
 11
8.162705
 21
-4.195985
 31
0.0
  0
LINE
  8
0
  6
CONTINUOUS
 62
     7
  5
4BA1
 10
8.162705
 20
-4.195985
 30
0.0
 11
8.220242
 21
-4.162772
 31
0.0
  0
LINE
  8
0
  6
CONTINUOUS
 62
     7
  5
4BA2
 10
8.220242
 20
-4.162772
 30
0.0
 11
8.220242
 21
-4.096335
 31
0.0
  0
LINE
  8
0
  6
CONTINUOUS
 62
     7
  5
4BA3
 10
8.220242
 20
-4.096335
 30
0.0
 11
8.162705
 21
-4.063121
 31
0.0
  0
CIRCLE
  8
0
  6
CONTINUOUS
 62
     7
  5
4BA4
 10
8.162705
 20
-4.129548
 30
0.0
 40
0.024005
  0
CIRCLE
  8
0
  6
CONTINUOUS
 62
     7
  5
4BA5
 10
12.178432
 20
-4.474103
 30
0.0
 40
0.92053
  0
CIRCLE
  8
0
  6
CONTINUOUS
 62
     7
  5
4BA6
 10
12.178432
 20
-4.474103
 30
0.0
 40
0.552318
  0
LINE
  8
0
  6
CONTINUOUS
 62
     7
  5
4BA7
 10
12.166429
 20
-4.004898
 30
0.0
 11
12.108892
 21
-4.038112
 31
0.0
  0
LINE
  8
0
  6
CONTINUOUS
 62
     7
  5
4BA8
 10
12.108892
 20
-4.038112
 30
0.0
 11
12.108892
 21
-4.104549
 31
0.0
  0
LINE
  8
0
  6
CONTINUOUS
 62
     7
  5
4BA9
 10
12.108892
 20
-4.104549
 30
0.0
 11
12.166429
 21
-4.137772
 31
0.0
  0
LINE
  8
0
  6
CONTINUOUS
 62
     7
  5
4BAA
 10
12.166429
 20
-4.137772
 30
0.0
 11
12.223966
 21
-4.104549
 31
0.0
  0
LINE
  8
0
  6
CONTINUOUS
 62
     7
  5
4BAB
 10
12.223966
 20
-4.104549
 30
0.0
 11
12.223966
 21
-4.038112
 31
0.0
  0
LINE
  8
0
  6
CONTINUOUS
 62
     7
  5
4BAC
 10
12.223966
 20
-4.038112
 30
0.0
 11
12.166429
 21
-4.004898
 31
0.0
  0
CIRCLE
  8
0
  6
CONTINUOUS
 62
     7
  5
4BAD
 10
12.166429
 20
-4.071335
 30
0.0
 40
0.024005
  0
LINE
  8
0
  6
CONTINUOUS
 62
     7
  5
4BAE
 10
12.430501
 20
-4.071335
 30
0.0
 11
12.372964
 21
-4.104549
 31
0.0
  0
LINE
  8
0
  6
CONTINUOUS
 62
     7
  5
4BAF
 10
12.372964
 20
-4.104549
 30
0.0
 11
12.372964
 21
-4.170986
 31
0.0
  0
LINE
  8
0
  6
CONTINUOUS
 62
     7
  5
4BB0
 10
12.372964
 20
-4.170986
 30
0.0
 11
12.430501
 21
-4.204209
 31
0.0
  0
LINE
  8
0
  6
CONTINUOUS
 62
     7
  5
4BB1
 10
12.430501
 20
-4.204209
 30
0.0
 11
12.488038
 21
-4.170986
 31
0.0
  0
LINE
  8
0
  6
CONTINUOUS
 62
     7
  5
4BB2
 10
12.488038
 20
-4.170986
 30
0.0
 11
12.488038
 21
-4.104549
 31
0.0
  0
LINE
  8
0
  6
CONTINUOUS
 62
     7
  5
4BB3
 10
12.488038
 20
-4.104549
 30
0.0
 11
12.430501
 21
-4.071335
 31
0.0
  0
CIRCLE
  8
0
  6
CONTINUOUS
 62
     7
  5
4BB4
 10
12.430501
 20
-4.137772
 30
0.0
 40
0.024005
  0
LINE
  8
0
  6
CONTINUOUS
 62
     7
  5
4BB5
 10
12.574542
 20
-4.254029
 30
0.0
 11
12.517005
 21
-4.287253
 31
0.0
  0
LINE
  8
0
  6
CONTINUOUS
 62
     7
  5
4BB6
 10
12.517005
 20
-4.287253
 30
0.0
 11
12.517005
 21
-4.35369
 31
0.0
  0
LINE
  8
0
  6
CONTINUOUS
 62
     7
  5
4BB7
 10
12.517005
 20
-4.35369
 30
0.0
 11
12.574542
 21
-4.386903
 31
0.0
  0
LINE
  8
0
  6
CONTINUOUS
 62
     7
  5
4BB8
 10
12.574542
 20
-4.386903
 30
0.0
 11
12.632074
 21
-4.35369
 31
0.0
  0
LINE
  8
0
  6
CONTINUOUS
 62
     7
  5
4BB9
 10
12.632074
 20
-4.35369
 30
0.0
 11
12.632074
 21
-4.287253
 31
0.0
  0
LINE
  8
0
  6
CONTINUOUS
 62
     7
  5
4BBA
 10
12.632074
 20
-4.287253
 30
0.0
 11
12.574542
 21
-4.254029
 31
0.0
  0
CIRCLE
  8
0
  6
CONTINUOUS
 62
     7
  5
4BBB
 10
12.574542
 20
-4.320466
 30
0.0
 40
0.024005
  0
LINE
  8
0
  6
CONTINUOUS
 62
     7
  5
4BBC
 10
12.566537
 20
-4.52808
 30
0.0
 11
12.509005
 21
-4.561304
 31
0.0
  0
LINE
  8
0
  6
CONTINUOUS
 62
     7
  5
4BBD
 10
12.509005
 20
-4.561304
 30
0.0
 11
12.509005
 21
-4.627741
 31
0.0
  0
LINE
  8
0
  6
CONTINUOUS
 62
     7
  5
4BBE
 10
12.509005
 20
-4.627741
 30
0.0
 11
12.566537
 21
-4.660954
 31
0.0
  0
LINE
  8
0
  6
CONTINUOUS
 62
     7
  5
4BBF
 10
12.566537
 20
-4.660954
 30
0.0
 11
12.624074
 21
-4.627741
 31
0.0
  0
LINE
  8
0
  6
CONTINUOUS
 62
     7
  5
4BC0
 10
12.624074
 20
-4.627741
 30
0.0
 11
12.624074
 21
-4.561304
 31
0.0
  0
LINE
  8
0
  6
CONTINUOUS
 62
     7
  5
4BC1
 10
12.624074
 20
-4.561304
 30
0.0
 11
12.566537
 21
-4.52808
 31
0.0
  0
CIRCLE
  8
0
  6
CONTINUOUS
 62
     7
  5
4BC2
 10
12.566537
 20
-4.594517
 30
0.0
 40
0.02401
  0
LINE
  8
0
  6
CONTINUOUS
 62
     7
  5
4BC3
 10
12.430501
 20
-4.743998
 30
0.0
 11
12.372964
 21
-4.777221
 31
0.0
  0
LINE
  8
0
  6
CONTINUOUS
 62
     7
  5
4BC4
 10
12.372964
 20
-4.777221
 30
0.0
 11
12.372964
 21
-4.843658
 31
0.0
  0
LINE
  8
0
  6
CONTINUOUS
 62
     7
  5
4BC5
 10
12.372964
 20
-4.843658
 30
0.0
 11
12.430501
 21
-4.876871
 31
0.0
  0
LINE
  8
0
  6
CONTINUOUS
 62
     7
  5
4BC6
 10
12.430501
 20
-4.876871
 30
0.0
 11
12.488038
 21
-4.843658
 31
0.0
  0
LINE
  8
0
  6
CONTINUOUS
 62
     7
  5
4BC7
 10
12.488038
 20
-4.843658
 30
0.0
 11
12.488038
 21
-4.777221
 31
0.0
  0
LINE
  8
0
  6
CONTINUOUS
 62
     7
  5
4BC8
 10
12.488038
 20
-4.777221
 30
0.0
 11
12.430501
 21
-4.743998
 31
0.0
  0
CIRCLE
  8
0
  6
CONTINUOUS
 62
     7
  5
4BC9
 10
12.430501
 20
-4.810434
 30
0.0
 40
0.024005
  0
LINE
  8
0
  6
CONTINUOUS
 62
     7
  5
4BCA
 10
12.174429
 20
-4.827041
 30
0.0
 11
12.116892
 21
-4.860265
 31
0.0
  0
LINE
  8
0
  6
CONTINUOUS
 62
     7
  5
4BCB
 10
12.116892
 20
-4.860265
 30
0.0
 11
12.116892
 21
-4.926701
 31
0.0
  0
LINE
  8
0
  6
CONTINUOUS
 62
     7
  5
4BCC
 10
12.116892
 20
-4.926701
 30
0.0
 11
12.174429
 21
-4.959915
 31
0.0
  0
LINE
  8
0
  6
CONTINUOUS
 62
     7
  5
4BCD
 10
12.174429
 20
-4.959915
 30
0.0
 11
12.231966
 21
-4.926701
 31
0.0
  0
LINE
  8
0
  6
CONTINUOUS
 62
     7
  5
4BCE
 10
12.231966
 20
-4.926701
 30
0.0
 11
12.231966
 21
-4.860265
 31
0.0
  0
LINE
  8
0
  6
CONTINUOUS
 62
     7
  5
4BCF
 10
12.231966
 20
-4.860265
 30
0.0
 11
12.174429
 21
-4.827041
 31
0.0
  0
CIRCLE
  8
0
  6
CONTINUOUS
 62
     7
  5
4BD0
 10
12.174429
 20
-4.893478
 30
0.0
 40
0.024005
  0
LINE
  8
0
  6
CONTINUOUS
 62
     7
  5
4BD1
 10
11.918357
 20
-4.727391
 30
0.0
 11
11.860821
 21
-4.760604
 31
0.0
  0
LINE
  8
0
  6
CONTINUOUS
 62
     7
  5
4BD2
 10
11.860821
 20
-4.760604
 30
0.0
 11
11.860821
 21
-4.827041
 31
0.0
  0
LINE
  8
0
  6
CONTINUOUS
 62
     7
  5
4BD3
 10
11.860821
 20
-4.827041
 30
0.0
 11
11.918357
 21
-4.860265
 31
0.0
  0
LINE
  8
0
  6
CONTINUOUS
 62
     7
  5
4BD4
 10
11.918357
 20
-4.860265
 30
0.0
 11
11.975894
 21
-4.827041
 31
0.0
  0
LINE
  8
0
  6
CONTINUOUS
 62
     7
  5
4BD5
 10
11.975894
 20
-4.827041
 30
0.0
 11
11.975894
 21
-4.760604
 31
0.0
  0
LINE
  8
0
  6
CONTINUOUS
 62
     7
  5
4BD6
 10
11.975894
 20
-4.760604
 30
0.0
 11
11.918357
 21
-4.727391
 31
0.0
  0
CIRCLE
  8
0
  6
CONTINUOUS
 62
     7
  5
4BD7
 10
11.918357
 20
-4.793828
 30
0.0
 40
0.024005
  0
LINE
  8
0
  6
CONTINUOUS
 62
     7
  5
4BD8
 10
11.794299
 20
-4.532505
 30
0.0
 11
11.736762
 21
-4.565719
 31
0.0
  0
LINE
  8
0
  6
CONTINUOUS
 62
     7
  5
4BD9
 10
11.736762
 20
-4.565719
 30
0.0
 11
11.736762
 21
-4.632156
 31
0.0
  0
LINE
  8
0
  6
CONTINUOUS
 62
     7
  5
4BDA
 10
11.736762
 20
-4.632156
 30
0.0
 11
11.794299
 21
-4.665379
 31
0.0
  0
LINE
  8
0
  6
CONTINUOUS
 62
     7
  5
4BDB
 10
11.794299
 20
-4.665379
 30
0.0
 11
11.851831
 21
-4.632156
 31
0.0
  0
LINE
  8
0
  6
CONTINUOUS
 62
     7
  5
4BDC
 10
11.851831
 20
-4.632156
 30
0.0
 11
11.851831
 21
-4.565719
 31
0.0
  0
LINE
  8
0
  6
CONTINUOUS
 62
     7
  5
4BDD
 10
11.851831
 20
-4.565719
 30
0.0
 11
11.794299
 21
-4.532505
 31
0.0
  0
CIRCLE
  8
0
  6
CONTINUOUS
 62
     7
  5
4BDE
 10
11.794299
 20
-4.598942
 30
0.0
 40
0.024005
  0
LINE
  8
0
  6
CONTINUOUS
 62
     7
  5
4BDF
 10
11.80392
 20
-4.26286
 30
0.0
 11
11.746388
 21
-4.296073
 31
0.0
  0
LINE
  8
0
  6
CONTINUOUS
 62
     7
  5
4BE0
 10
11.746388
 20
-4.296073
 30
0.0
 11
11.746388
 21
-4.36251
 31
0.0
  0
LINE
  8
0
  6
CONTINUOUS
 62
     7
  5
4BE1
 10
11.746388
 20
-4.36251
 30
0.0
 11
11.80392
 21
-4.395724
 31
0.0
  0
LINE
  8
0
  6
CONTINUOUS
 62
     7
  5
4BE2
 10
11.80392
 20
-4.395724
 30
0.0
 11
11.861457
 21
-4.36251
 31
0.0
  0
LINE
  8
0
  6
CONTINUOUS
 62
     7
  5
4BE3
 10
11.861457
 20
-4.36251
 30
0.0
 11
11.861457
 21
-4.296073
 31
0.0
  0
LINE
  8
0
  6
CONTINUOUS
 62
     7
  5
4BE4
 10
11.861457
 20
-4.296073
 30
0.0
 11
11.80392
 21
-4.26286
 31
0.0
  0
CIRCLE
  8
0
  6
CONTINUOUS
 62
     7
  5
4BE5
 10
11.80392
 20
-4.329297
 30
0.0
 40
0.02401
  0
LINE
  8
0
  6
CONTINUOUS
 62
     7
  5
4BE6
 10
11.957895
 20
-4.063121
 30
0.0
 11
11.900358
 21
-4.096335
 31
0.0
  0
LINE
  8
0
  6
CONTINUOUS
 62
     7
  5
4BE7
 10
11.900358
 20
-4.096335
 30
0.0
 11
11.900358
 21
-4.162772
 31
0.0
  0
LINE
  8
0
  6
CONTINUOUS
 62
     7
  5
4BE8
 10
11.900358
 20
-4.162772
 30
0.0
 11
11.957895
 21
-4.195985
 31
0.0
  0
LINE
  8
0
  6
CONTINUOUS
 62
     7
  5
4BE9
 10
11.957895
 20
-4.195985
 30
0.0
 11
12.015432
 21
-4.162772
 31
0.0
  0
LINE
  8
0
  6
CONTINUOUS
 62
     7
  5
4BEA
 10
12.015432
 20
-4.162772
 30
0.0
 11
12.015432
 21
-4.096335
 31
0.0
  0
LINE
  8
0
  6
CONTINUOUS
 62
     7
  5
4BEB
 10
12.015432
 20
-4.096335
 30
0.0
 11
11.957895
 21
-4.063121
 31
0.0
  0
CIRCLE
  8
0
  6
CONTINUOUS
 62
     7
  5
4BEC
 10
11.957895
 20
-4.129548
 30
0.0
 40
0.024005
  0
ARC
  8
0
  6
CONTINUOUS
 62
     7
  5
4BED
 10
8.383241
 20
-4.474103
 30
0.0
 40
1.656944
 50
0.0
 51
180.0
  0
ARC
  8
0
  6
CONTINUOUS
 62
     7
  5
4BEE
 10
8.383241
 20
-4.474103
 30
0.0
 40
1.656944
 50
180.0
 51
0.0
  0
ARC
  8
0
  6
CONTINUOUS
 62
     7
  5
4BEF
 10
12.178432
 20
-4.474103
 30
0.0
 40
1.656944
 50
0.0
 51
180.0
  0
ARC
  8
0
  6
CONTINUOUS
 62
     7
  5
4BF0
 10
12.178432
 20
-4.474103
 30
0.0
 40
1.656944
 50
180.0
 51
0.0
  0
ARC
  8
0
  6
CONTINUOUS
 62
     7
  5
4BF1
 10
8.383241
 20
-4.474103
 30
0.0
 40
1.104626
 50
0.0
 51
180.0
  0
ARC
  8
0
  6
CONTINUOUS
 62
     7
  5
4BF2
 10
8.383241
 20
-4.474103
 30
0.0
 40
1.104626
 50
180.0
 51
0.0
  0
ARC
  8
0
  6
CONTINUOUS
 62
     7
  5
4BF3
 10
8.383241
 20
-4.474103
 30
0.0
 40
0.276159
 50
0.0
 51
180.0
  0
ARC
  8
0
  6
CONTINUOUS
 62
     7
  5
4BF4
 10
8.383241
 20
-4.474103
 30
0.0
 40
0.276159
 50
180.0
 51
0.0
  0
ARC
  8
0
  6
CONTINUOUS
 62
     7
  5
4BF5
 10
12.178432
 20
-4.474103
 30
0.0
 40
0.276159
 50
0.0
 51
180.0
  0
ARC
  8
0
  6
CONTINUOUS
 62
     7
  5
4BF6
 10
12.178432
 20
-4.474103
 30
0.0
 40
0.276159
 50
180.0
 51
0.0
  0
ARC
  8
0
  6
CONTINUOUS
 62
     7
  5
4BF7
 10
12.178432
 20
-4.474103
 30
0.0
 40
1.104626
 50
0.0
 51
180.0
  0
ARC
  8
0
  6
CONTINUOUS
 62
     7
  5
4BF8
 10
12.178432
 20
-4.474103
 30
0.0
 40
1.104626
 50
180.0
 51
0.0
  0
LINE
  8
0
  6
CONTINUOUS
 62
     7
  5
4BF9
 10
9.838877
 20
-3.682529
 30
0.0
 11
10.722796
 21
-3.682529
 31
0.0
  0
LINE
  8
0
 62
     1
  5
4BFA
 10
15.518932
 20
-2.067278
 30
0.0
 11
15.518932
 21
-2.931071
 31
0.0
  0
LINE
  8
0
  6
CONTINUOUS
 62
     1
  5
4BFB
 10
14.527572
 20
-2.302872
 30
0.0
 11
14.547413
 21
-2.283031
 31
0.0
  0
LINE
  8
0
  6
CONTINUOUS
 62
     7
  5
4BFC
 10
15.275863
 20
-3.682529
 30
0.0
 11
15.275863
 21
-2.931071
 31
0.0
  0
ARC
  8
0
 62
     7
  5
4BFD
 10
-6.34743
 20
-10.440215
 30
0.0
 40
10.234192
 50
90.641483
 51
110.04919
  0
ARC
  8
0
 62
     7
  5
4BFE
 10
-9.776151
 20
-1.133487
 30
0.0
 40
0.31746
 50
104.564827
 51
180.0
  0
LINE
  8
0
  5
4BFF
 10
-9.948574
 20
-0.866932
 30
0.0
 11
-9.919069
 21
-0.583891
 31
0.0
  0
LINE
  8
0
  5
4C00
 10
-9.736658
 20
-0.635479
 30
0.0
 11
-9.734274
 21
-0.795028
 31
0.0
  0
LINE
  8
0
  5
4C01
 10
-9.932836
 20
-0.41193
 30
0.0
 11
-9.884652
 21
-0.446322
 31
0.0
  0
LINE
  8
0
  5
4C02
 10
-9.884652
 20
-0.446322
 30
0.0
 11
-9.874327
 21
-0.491032
 31
0.0
  0
LINE
  8
0
  5
4C03
 10
-9.874327
 20
-0.491032
 30
0.0
 11
-9.784842
 21
-0.518546
 31
0.0
  0
LINE
  8
0
  5
4C04
 10
-9.784842
 20
-0.518546
 30
0.0
 11
-9.736658
 21
-0.635479
 31
0.0
  0
LINE
  8
0
  5
4C05
 10
-10.018879
 20
-0.491032
 30
0.0
 11
-10.005112
 21
-0.429126
 31
0.0
  0
LINE
  8
0
  5
4C06
 10
-9.919069
 20
-0.583891
 30
0.0
 11
-10.018879
 21
-0.491032
 31
0.0
  0
LINE
  8
0
  5
4C07
 10
-10.005112
 20
-0.429126
 30
0.0
 11
-9.932836
 21
-0.41193
 31
0.0
  0
LINE
  8
0
  6
CONTINUOUS
 62
     1
  5
4C08
 10
0.535283
 20
1.581793
 30
0.0
 11
12.833143
 21
1.581793
 31
0.0
  0
LINE
  8
0
  6
CONTINUOUS
 62
     1
  5
4C09
 10
0.555125
 20
2.174727
 30
0.0
 11
12.80042
 21
2.174727
 31
0.0
  0
LINE
  8
0
 62
     1
  5
4C0A
 10
13.539398
 20
3.064127
 30
0.0
 11
1.331477
 21
3.064127
 31
0.0
  0
LINE
  8
0
  6
CONTINUOUS
 62
     1
  5
4C0B
 10
5.810117
 20
-0.347277
 30
0.0
 11
7.874184
 21
-0.347277
 31
0.0
  0
LINE
  8
0
  6
CONTINUOUS
 62
     1
  5
4C0C
 10
5.810117
 20
0.238903
 30
0.0
 11
7.874184
 21
0.238903
 31
0.0
  0
LINE
  8
0
  6
CONTINUOUS
 62
     1
  5
4C0D
 10
1.3328
 20
3.452286
 30
0.0
 11
-2.777625
 21
3.430364
 31
0.0
  0
LINE
  8
0
  6
CONTINUOUS
 62
     1
  5
4C0E
 10
-2.820601
 20
2.856911
 30
0.0
 11
0.128467
 21
2.750487
 31
0.0
  0
LINE
  8
0
  6
CONTINUOUS
 62
     7
  5
4C0F
 10
-1.423225
 20
1.449075
 30
0.0
 11
-0.490685
 21
1.449075
 31
0.0
  0
POLYLINE
  8
0
 62
     7
  5
4C10
 66
     1
 10
0.0
 20
0.0
 30
0.0
  0
VERTEX
  8
0
 62
     7
  5
4C11
 10
-0.956955
 20
2.588988
 30
0.0
 40
0.0
 41
0.0
  0
VERTEX
  8
0
 62
     7
  5
4C12
 10
-1.00688
 20
2.581041
 30
0.0
 40
0.0
 41
0.0
  0
VERTEX
  8
0
 62
     7
  5
4C13
 10
-1.054762
 20
2.557526
 30
0.0
 40
0.0
 41
0.0
  0
VERTEX
  8
0
 62
     7
  5
4C14
 10
-1.098639
 20
2.519405
 30
0.0
 40
0.0
 41
0.0
  0
VERTEX
  8
0
 62
     7
  5
4C15
 10
-1.136715
 20
2.468238
 30
0.0
 40
0.0
 41
0.0
  0
VERTEX
  8
0
 62
     7
  5
4C16
 10
-1.167432
 20
2.406121
 30
0.0
 40
0.0
 41
0.0
  0
VERTEX
  8
0
 62
     7
  5
4C17
 10
-1.189533
 20
2.335597
 30
0.0
 40
0.0
 41
0.0
  0
VERTEX
  8
0
 62
     7
  5
4C18
 10
-1.202111
 20
2.259553
 30
0.0
 40
0.0
 41
0.0
  0
VERTEX
  8
0
 62
     7
  5
4C19
 10
-1.204653
 20
2.181102
 30
0.0
 40
0.0
 41
0.0
  0
VERTEX
  8
0
 62
     7
  5
4C1A
 10
-1.197054
 20
2.103456
 30
0.0
 40
0.0
 41
0.0
  0
VERTEX
  8
0
 62
     7
  5
4C1B
 10
-1.179625
 20
2.029794
 30
0.0
 40
0.0
 41
0.0
  0
VERTEX
  8
0
 62
     7
  5
4C1C
 10
-1.15308
 20
1.963132
 30
0.0
 40
0.0
 41
0.0
  0
VERTEX
  8
0
 62
     7
  5
4C1D
 10
-1.118506
 20
1.906198
 30
0.0
 40
0.0
 41
0.0
  0
VERTEX
  8
0
 62
     7
  5
4C1E
 10
-1.077318
 20
1.861324
 30
0.0
 40
0.0
 41
0.0
  0
VERTEX
  8
0
 62
     7
  5
4C1F
 10
-1.031202
 20
1.830347
 30
0.0
 40
0.0
 41
0.0
  0
VERTEX
  8
0
 62
     7
  5
4C20
 10
-0.982046
 20
1.814534
 30
0.0
 40
0.0
 41
0.0
  0
VERTEX
  8
0
 62
     7
  5
4C21
 10
-0.931864
 20
1.814534
 30
0.0
 40
0.0
 41
0.0
  0
VERTEX
  8
0
 62
     7
  5
4C22
 10
-0.882708
 20
1.830347
 30
0.0
 40
0.0
 41
0.0
  0
VERTEX
  8
0
 62
     7
  5
4C23
 10
-0.836593
 20
1.861324
 30
0.0
 40
0.0
 41
0.0
  0
VERTEX
  8
0
 62
     7
  5
4C24
 10
-0.795404
 20
1.906198
 30
0.0
 40
0.0
 41
0.0
  0
VERTEX
  8
0
 62
     7
  5
4C25
 10
-0.76083
 20
1.963132
 30
0.0
 40
0.0
 41
0.0
  0
VERTEX
  8
0
 62
     7
  5
4C26
 10
-0.734285
 20
2.029794
 30
0.0
 40
0.0
 41
0.0
  0
VERTEX
  8
0
 62
     7
  5
4C27
 10
-0.716857
 20
2.103456
 30
0.0
 40
0.0
 41
0.0
  0
VERTEX
  8
0
 62
     7
  5
4C28
 10
-0.709258
 20
2.181102
 30
0.0
 40
0.0
 41
0.0
  0
VERTEX
  8
0
 62
     7
  5
4C29
 10
-0.711799
 20
2.259553
 30
0.0
 40
0.0
 41
0.0
  0
VERTEX
  8
0
 62
     7
  5
4C2A
 10
-0.724378
 20
2.335597
 30
0.0
 40
0.0
 41
0.0
  0
VERTEX
  8
0
 62
     7
  5
4C2B
 10
-0.746478
 20
2.406121
 30
0.0
 40
0.0
 41
0.0
  0
VERTEX
  8
0
 62
     7
  5
4C2C
 10
-0.777195
 20
2.468238
 30
0.0
 40
0.0
 41
0.0
  0
VERTEX
  8
0
 62
     7
  5
4C2D
 10
-0.815272
 20
2.519405
 30
0.0
 40
0.0
 41
0.0
  0
VERTEX
  8
0
 62
     7
  5
4C2E
 10
-0.859149
 20
2.557526
 30
0.0
 40
0.0
 41
0.0
  0
VERTEX
  8
0
 62
     7
  5
4C2F
 10
-0.90703
 20
2.581041
 30
0.0
 40
0.0
 41
0.0
  0
VERTEX
  8
0
 62
     7
  5
4C30
 10
-0.956955
 20
2.588988
 30
0.0
 40
0.0
 41
0.0
  0
SEQEND
  8
0
 62
     7
  5
79F0
  0
LINE
  8
0
  6
CONTINUOUS
 62
     1
  5
4C31
 10
-2.777625
 20
3.430364
 30
0.0
 11
-2.820601
 21
2.856911
 31
0.0
  0
LINE
  8
0
  6
CONTINUOUS
 62
     7
  5
4C32
 10
-6.462009
 20
-0.206664
 30
0.0
 11
-5.71274
 21
-0.190866
 31
0.0
  0
LINE
  8
0
  6
CONTINUOUS
 62
     7
  5
4C33
 10
-5.71274
 20
-0.190866
 30
0.0
 11
-5.340988
 21
1.714361
 31
0.0
  0
LINE
  8
0
  6
CONTINUOUS
 62
     7
  5
4C34
 10
-5.340988
 20
1.714361
 30
0.0
 11
-5.16271
 21
1.819895
 31
0.0
  0
LINE
  8
0
  6
CONTINUOUS
 62
     7
  5
4C35
 10
-5.16271
 20
1.819895
 30
0.0
 11
-4.968393
 21
1.917683
 31
0.0
  0
LINE
  8
0
  6
CONTINUOUS
 62
     7
  5
4C36
 10
-4.968393
 20
1.917683
 30
0.0
 11
-4.727128
 21
2.016675
 31
0.0
  0
LINE
  8
0
  6
CONTINUOUS
 62
     7
  5
4C37
 10
-4.727128
 20
2.016675
 30
0.0
 11
-4.502937
 21
2.088396
 31
0.0
  0
LINE
  8
0
  6
CONTINUOUS
 62
     7
  5
4C38
 10
-4.502937
 20
2.088396
 30
0.0
 11
-4.319432
 21
2.133578
 31
0.0
  0
LINE
  8
0
  6
CONTINUOUS
 62
     7
  5
4C39
 10
-4.319432
 20
2.133578
 30
0.0
 11
-4.099239
 21
2.172535
 31
0.0
  0
LINE
  8
0
  6
CONTINUOUS
 62
     7
  5
4C3A
 10
-4.099239
 20
2.172535
 30
0.0
 11
-3.83909
 21
2.197892
 31
0.0
  0
LINE
  8
0
  6
CONTINUOUS
 62
     7
  5
4C3B
 10
-3.83909
 20
2.197892
 30
0.0
 11
-3.621637
 21
2.202286
 31
0.0
  0
LINE
  8
0
  6
CONTINUOUS
 62
     7
  5
4C3C
 10
-3.621637
 20
2.202286
 30
0.0
 11
-2.075712
 21
2.202286
 31
0.0
  0
ARC
  8
0
  6
CONTINUOUS
 62
     7
  5
4C3D
 10
-2.075712
 20
1.726095
 30
0.0
 40
0.47619
 50
0.0
 51
90.0
  0
LINE
  8
0
  6
CONTINUOUS
 62
     7
  5
4C3E
 10
-5.356546
 20
1.634626
 30
0.0
 11
-5.213732
 21
1.619485
 31
0.0
  0
ARC
  8
0
  6
CONTINUOUS
 62
     7
  5
4C3F
 10
-5.238833
 20
1.382717
 30
0.0
 40
0.238095
 50
348.159695
 51
83.948289
  0
LINE
  8
0
  6
CONTINUOUS
 62
     7
  5
4C40
 10
-5.005804
 20
1.333863
 30
0.0
 11
-5.301737
 21
-0.077724
 31
0.0
  0
LINE
  8
0
  6
CONTINUOUS
 62
     7
  5
4C41
 10
-5.301737
 20
-0.077724
 30
0.0
 11
-5.696042
 21
-0.105289
 31
0.0
  0
LINE
  8
0
  6
CONTINUOUS
 62
     7
  5
4C42
 10
-5.696042
 20
-0.105289
 30
0.0
 11
-5.356546
 21
1.634626
 31
0.0
  0
LINE
  8
0
  6
CONTINUOUS
 62
     7
  5
4C43
 10
-5.033152
 20
-0.115085
 30
0.0
 11
-4.79337
 21
1.327935
 31
0.0
  0
LINE
  8
0
  6
CONTINUOUS
 62
     7
  5
4C44
 10
-4.79337
 20
1.327935
 30
0.0
 11
-4.763957
 21
1.42295
 31
0.0
  0
LINE
  8
0
  6
CONTINUOUS
 62
     7
  5
4C45
 10
-4.763957
 20
1.42295
 30
0.0
 11
-4.725294
 21
1.495255
 31
0.0
  0
LINE
  8
0
  6
CONTINUOUS
 62
     7
  5
4C46
 10
-4.725294
 20
1.495255
 30
0.0
 11
-4.665528
 21
1.569539
 31
0.0
  0
LINE
  8
0
  6
CONTINUOUS
 62
     7
  5
4C47
 10
-4.665528
 20
1.569539
 30
0.0
 11
-4.591812
 21
1.630664
 31
0.0
  0
LINE
  8
0
  6
CONTINUOUS
 62
     7
  5
4C48
 10
-4.591812
 20
1.630664
 30
0.0
 11
-4.500172
 21
1.67869
 31
0.0
  0
LINE
  8
0
  6
CONTINUOUS
 62
     7
  5
4C49
 10
-4.500172
 20
1.67869
 30
0.0
 11
-4.402079
 21
1.705509
 31
0.0
  0
LINE
  8
0
  6
CONTINUOUS
 62
     7
  5
4C4A
 10
-4.402079
 20
1.705509
 30
0.0
 11
-4.326258
 21
1.711584
 31
0.0
  0
LINE
  8
0
  6
CONTINUOUS
 62
     7
  5
4C4B
 10
-4.326258
 20
1.711584
 30
0.0
 11
-2.547272
 21
1.711584
 31
0.0
  0
LINE
  8
0
  6
CONTINUOUS
 62
     7
  5
4C4C
 10
-2.547272
 20
1.711584
 30
0.0
 11
-2.410744
 21
1.691592
 31
0.0
  0
LINE
  8
0
  6
CONTINUOUS
 62
     7
  5
4C4D
 10
-2.410744
 20
1.691592
 30
0.0
 11
-2.29464
 21
1.639045
 31
0.0
  0
LINE
  8
0
  6
CONTINUOUS
 62
     7
  5
4C4E
 10
-2.29464
 20
1.639045
 30
0.0
 11
-2.202499
 21
1.563857
 31
0.0
  0
LINE
  8
0
  6
CONTINUOUS
 62
     7
  5
4C4F
 10
-2.202499
 20
1.563857
 30
0.0
 11
-2.13475
 21
1.473264
 31
0.0
  0
LINE
  8
0
  6
CONTINUOUS
 62
     7
  5
4C50
 10
-2.13475
 20
1.473264
 30
0.0
 11
-2.093473
 21
1.379697
 31
0.0
  0
LINE
  8
0
  6
CONTINUOUS
 62
     7
  5
4C51
 10
-2.093473
 20
1.379697
 30
0.0
 11
-2.07742
 21
1.312825
 31
0.0
  0
LINE
  8
0
  6
CONTINUOUS
 62
     7
  5
4C52
 10
-2.07742
 20
1.312825
 30
0.0
 11
-2.071082
 21
1.235393
 31
0.0
  0
LINE
  8
0
  6
CONTINUOUS
 62
     7
  5
4C53
 10
-2.071082
 20
1.235393
 30
0.0
 11
-2.071082
 21
-0.115085
 31
0.0
  0
LINE
  8
0
  6
CONTINUOUS
 62
     7
  5
4C54
 10
-2.071082
 20
-0.115085
 30
0.0
 11
-5.033152
 21
-0.115085
 31
0.0
  0
LINE
  8
0
  6
CONTINUOUS
 62
     7
  5
4C55
 10
-4.326258
 20
1.711584
 30
0.0
 11
-4.242883
 21
1.711584
 31
0.0
  0
LINE
  8
0
  6
CONTINUOUS
 62
     7
  5
4C56
 10
-4.242883
 20
1.711584
 30
0.0
 11
-4.242883
 21
-0.115085
 31
0.0
  0
LINE
  8
0
  6
CONTINUOUS
 62
     7
  5
4C57
 10
-4.242883
 20
-0.115085
 30
0.0
 11
-4.326258
 21
-0.115085
 31
0.0
  0
LINE
  8
0
  6
CONTINUOUS
 62
     7
  5
4C58
 10
-4.326258
 20
-0.115085
 30
0.0
 11
-4.326258
 21
1.711584
 31
0.0
  0
LINE
  8
0
  6
CONTINUOUS
 62
     7
  5
4C59
 10
-4.860002
 20
1.334398
 30
0.0
 11
-4.399003
 21
1.334398
 31
0.0
  0
LINE
  8
0
  6
CONTINUOUS
 62
     7
  5
4C5A
 10
-4.399003
 20
1.334398
 30
0.0
 11
-4.399003
 21
-0.084321
 31
0.0
  0
LINE
  8
0
  6
CONTINUOUS
 62
     7
  5
4C5B
 10
-4.399003
 20
-0.084321
 30
0.0
 11
-4.860002
 21
-0.084321
 31
0.0
  0
LINE
  8
0
  6
CONTINUOUS
 62
     7
  5
4C5C
 10
-4.860002
 20
-0.084321
 30
0.0
 11
-4.860002
 21
1.334398
 31
0.0
  0
ARC
  8
0
  6
CONTINUOUS
 62
     7
  5
4C5D
 10
-4.539646
 20
-0.463793
 30
0.0
 40
0.058087
 50
270.0
 51
309.639272
  0
ARC
  8
0
  6
CONTINUOUS
 62
     7
  5
4C5E
 10
-4.602816
 20
-0.387541
 30
0.0
 40
0.157105
 50
309.639272
 51
333.434949
  0
ARC
  8
0
  6
CONTINUOUS
 62
     7
  5
4C5F
 10
-4.704627
 20
-0.336636
 30
0.0
 40
0.270934
 50
333.434949
 51
348.29908
  0
ARC
  8
0
  6
CONTINUOUS
 62
     7
  5
4C60
 10
-4.866547
 20
-0.303101
 30
0.0
 40
0.436291
 50
348.29908
 51
0.0
  0
ARC
  8
0
  6
CONTINUOUS
 62
     7
  5
4C61
 10
-4.866547
 20
-0.303101
 30
0.0
 40
0.436291
 50
0.0
 51
11.70092
  0
ARC
  8
0
  6
CONTINUOUS
 62
     7
  5
4C62
 10
-4.704627
 20
-0.269566
 30
0.0
 40
0.270934
 50
11.70092
 51
26.565051
  0
ARC
  8
0
  6
CONTINUOUS
 62
     7
  5
4C63
 10
-4.602816
 20
-0.21866
 30
0.0
 40
0.157105
 50
26.565051
 51
50.360728
  0
ARC
  8
0
  6
CONTINUOUS
 62
     7
  5
4C64
 10
-4.539646
 20
-0.142408
 30
0.0
 40
0.058087
 50
50.360728
 51
90.0
  0
ARC
  8
0
  6
CONTINUOUS
 62
     7
  5
4C65
 10
-4.539646
 20
-0.142408
 30
0.0
 40
0.058087
 50
90.0
 51
129.639272
  0
ARC
  8
0
  6
CONTINUOUS
 62
     7
  5
4C66
 10
-4.476477
 20
-0.21866
 30
0.0
 40
0.157105
 50
129.639272
 51
153.434949
  0
ARC
  8
0
  6
CONTINUOUS
 62
     7
  5
4C67
 10
-4.374665
 20
-0.269566
 30
0.0
 40
0.270934
 50
153.434949
 51
168.29908
  0
ARC
  8
0
  6
CONTINUOUS
 62
     7
  5
4C68
 10
-4.212745
 20
-0.303101
 30
0.0
 40
0.436291
 50
168.29908
 51
180.0
  0
ARC
  8
0
  6
CONTINUOUS
 62
     7
  5
4C69
 10
-4.212745
 20
-0.303101
 30
0.0
 40
0.436291
 50
180.0
 51
191.70092
  0
ARC
  8
0
  6
CONTINUOUS
 62
     7
  5
4C6A
 10
-4.374665
 20
-0.336636
 30
0.0
 40
0.270934
 50
191.70092
 51
206.565051
  0
ARC
  8
0
  6
CONTINUOUS
 62
     7
  5
4C6B
 10
-4.476477
 20
-0.387541
 30
0.0
 40
0.157105
 50
206.565051
 51
230.360728
  0
ARC
  8
0
  6
CONTINUOUS
 62
     7
  5
4C6C
 10
-4.539646
 20
-0.463793
 30
0.0
 40
0.058087
 50
230.360728
 51
270.0
  0
LINE
  8
0
  6
CONTINUOUS
 62
     1
  5
4C6D
 10
1.328443
 20
2.174727
 30
0.0
 11
1.3328
 21
3.452286
 31
0.0
  0
LINE
  8
0
  6
CONTINUOUS
 62
     1
  5
4C6E
 10
0.128467
 20
2.750487
 30
0.0
 11
0.529351
 21
2.225176
 31
0.0
  0
LINE
  8
0
  6
CONTINUOUS
 62
     1
  5
4C6F
 10
0.535283
 20
-1.329055
 30
0.0
 11
0.535283
 21
-1.211338
 31
0.0
  0
LINE
  8
0
  6
CONTINUOUS
 62
     1
  5
4C70
 10
0.535283
 20
0.159231
 30
0.0
 11
0.535283
 21
0.276948
 31
0.0
  0
LINE
  8
0
  6
CONTINUOUS
 62
     1
  5
4C71
 10
0.535283
 20
1.156083
 30
0.0
 11
0.535283
 21
1.2738
 31
0.0
  0
LINE
  8
0
  6
CONTINUOUS
 62
     1
  5
4C72
 10
0.529351
 20
2.225176
 30
0.0
 11
0.535283
 21
2.186401
 31
0.0
  0
LINE
  8
0
  6
CONTINUOUS
 62
     1
  5
4C73
 10
0.535283
 20
2.154885
 30
0.0
 11
0.555125
 21
2.174727
 31
0.0
  0
LINE
  8
0
  6
CONTINUOUS
 62
     1
  5
4C74
 10
1.024579
 20
-0.347277
 30
0.0
 11
2.946938
 21
-0.347277
 31
0.0
  0
LINE
  8
0
  6
CONTINUOUS
 62
     1
  5
4C75
 10
1.024579
 20
0.238903
 30
0.0
 11
2.946938
 21
0.238903
 31
0.0
  0
LINE
  8
0
  6
CONTINUOUS
 62
     1
  5
4C76
 10
3.32157
 20
0.238903
 30
0.0
 11
5.435485
 21
0.238903
 31
0.0
  0
LINE
  8
0
  6
CONTINUOUS
 62
     1
  5
4C77
 10
3.32157
 20
-0.347277
 30
0.0
 11
5.435485
 21
-0.347277
 31
0.0
  0
LINE
  8
0
  6
CONTINUOUS
 62
     7
  5
4C78
 10
-0.204919
 20
2.723649
 30
0.0
 11
-0.287113
 21
2.730988
 31
0.0
  0
LINE
  8
0
  6
CONTINUOUS
 62
     7
  5
4C79
 10
-0.490685
 20
1.449075
 30
0.0
 11
-0.470844
 21
1.429234
 31
0.0
  0
LINE
  8
0
  6
CONTINUOUS
 62
     7
  5
4C7A
 10
-1.18513
 20
1.449075
 30
0.0
 11
-1.18513
 21
2.048614
 31
0.0
  0
LINE
  8
0
  6
CONTINUOUS
 62
     7
  5
4C7B
 10
-0.708939
 20
1.449075
 30
0.0
 11
-0.708939
 21
2.200765
 31
0.0
  0
LINE
  8
0
  6
CONTINUOUS
 62
     1
  5
4C7C
 10
12.826653
 20
2.19351
 30
0.0
 11
13.116555
 21
3.045343
 31
0.0
  0
LINE
  8
0
  6
CONTINUOUS
 62
     1
  5
4C7D
 10
12.330935
 20
1.581793
 30
0.0
 11
12.852984
 21
1.581793
 31
0.0
  0
LINE
  8
0
  6
CONTINUOUS
 62
     1
  5
4C7E
 10
14.340272
 20
-1.076769
 30
0.0
 11
13.562597
 21
3.044572
 31
0.0
  0
LINE
  8
0
  6
CONTINUOUS
 62
     1
  5
4C7F
 10
12.80042
 20
2.174727
 30
0.0
 11
12.826653
 21
2.19351
 31
0.0
  0
LINE
  8
0
  6
CONTINUOUS
 62
     1
  5
4C80
 10
12.833143
 20
1.581793
 30
0.0
 11
12.852984
 21
1.561952
 31
0.0
  0
LINE
  8
0
  6
CONTINUOUS
 62
     1
  5
4C81
 10
8.248816
 20
0.238903
 30
0.0
 11
10.363436
 21
0.238903
 31
0.0
  0
LINE
  8
0
  6
CONTINUOUS
 62
     1
  5
4C82
 10
8.248816
 20
-0.347277
 30
0.0
 11
10.363436
 21
-0.347277
 31
0.0
  0
LINE
  8
0
  6
CONTINUOUS
 62
     1
  5
4C83
 10
10.738068
 20
-0.347277
 30
0.0
 11
12.852984
 21
-0.347277
 31
0.0
  0
LINE
  8
0
  6
CONTINUOUS
 62
     1
  5
4C84
 10
10.738068
 20
0.238903
 30
0.0
 11
12.852984
 21
0.238903
 31
0.0
  0
ENDBLK
  8
0
  5
79F1
  0
BLOCK
  8
0
  5
79F2
  2
DUMP_TRUCK
 70
    64
 10
0.0
 20
0.0
 30
0.0
  3
Dump Truck
  0
ARC
  8
0
  5
4C85
 10
-2.593568
 20
-3.218788
 30
2.816734
 40
0.274072
 50
270.063641
 51
0.063641
210
0.0
220
0.0
230
-1.0
  0
ARC
  8
0
  5
4C86
 10
11.001248
 20
-2.579416
 30
2.816734
 40
0.274072
 50
0.063641
 51
90.063641
210
0.0
220
0.0
230
-1.0
  0
ARC
  8
0
  5
4C87
 10
11.001596
 20
-2.893005
 30
2.816734
 40
0.274072
 50
270.063641
 51
0.063641
210
0.0
220
0.0
230
-1.0
  0
LINE
  8
0
  5
4C88
 10
-11.27532
 20
-2.579111
 30
-2.816734
 11
-11.275668
 21
-2.8927
 31
-2.816734
210
0.0
220
0.0
230
-1.0
  0
ARC
  8
0
  5
4C89
 10
-10.995291
 20
2.783626
 30
-2.816734
 40
0.274072
 50
179.936359
 51
269.936359
  0
ARC
  8
0
  5
4C8A
 10
-10.994943
 20
3.097215
 30
-2.816734
 40
0.274072
 50
89.936359
 51
179.936359
  0
LINE
  8
0
  5
4C8B
 10
-11.269363
 20
2.783931
 30
-2.816734
 11
-11.269015
 21
3.097519
 31
-2.816734
  0
LINE
  8
0
  5
4C8C
 10
-8.123233
 20
-2.582612
 30
-2.816651
 11
-8.123581
 21
-2.896201
 31
-2.816651
210
0.0
220
0.0
230
-1.0
  0
LINE
  8
0
  5
4C8D
 10
-8.117276
 20
2.780429
 30
-2.816651
 11
-8.116928
 21
3.094018
 31
-2.816651
  0
ARC
  8
0
  5
4C8E
 10
2.600903
 20
3.39411
 30
-2.816734
 40
0.274072
 50
89.936359
 51
179.936359
  0
ARC
  8
0
  5
4C8F
 10
2.599479
 20
2.111732
 30
-2.816734
 40
0.274072
 50
179.936359
 51
269.936359
  0
ARC
  8
0
  5
4C90
 10
2.599827
 20
2.425321
 30
-2.816734
 40
0.274072
 50
89.936359
 51
179.936359
  0
LINE
  8
0
  5
4C91
 10
2.325406
 20
2.112037
 30
-2.816734
 11
2.325755
 21
2.425626
 31
-2.816734
  0
ARC
  8
0
  5
4C92
 10
2.600555
 20
3.080521
 30
-2.816734
 40
0.274072
 50
179.936359
 51
269.936359
  0
LINE
  8
0
  5
4C93
 10
2.326483
 20
3.080826
 30
-2.816734
 11
2.326831
 21
3.394415
 31
-2.816734
  0
ARC
  8
0
  5
4C94
 10
-2.593916
 20
-2.905199
 30
2.816734
 40
0.274072
 50
0.063641
 51
90.063641
210
0.0
220
0.0
230
-1.0
  0
ARC
  8
0
  5
4C95
 10
-2.594992
 20
-1.93641
 30
2.816734
 40
0.274072
 50
0.063641
 51
90.063641
210
0.0
220
0.0
230
-1.0
  0
ARC
  8
0
  5
4C96
 10
-2.594644
 20
-2.249999
 30
2.816734
 40
0.274072
 50
270.063641
 51
0.063641
210
0.0
220
0.0
230
-1.0
  0
LINE
  8
0
  5
4C97
 10
2.32092
 20
-1.936106
 30
-2.816734
 11
2.320572
 21
-2.249695
 31
-2.816734
210
0.0
220
0.0
230
-1.0
  0
LINE
  8
0
  5
4C98
 10
2.319844
 20
-2.904895
 30
-2.816734
 11
2.319496
 21
-3.218484
 31
-2.816734
210
0.0
220
0.0
230
-1.0
  0
LINE
  8
0
  5
4C99
 10
5.902931
 20
-3.413636
 30
-2.816651
 11
5.902583
 21
-3.727225
 31
-2.816651
210
0.0
220
0.0
230
-1.0
  0
ARC
  8
0
  5
4C9A
 10
-6.608086
 20
-3.223247
 30
2.816734
 40
0.274072
 50
270.063641
 51
0.063641
210
0.0
220
0.0
230
-1.0
  0
LINE
  8
0
  5
4C9B
 10
5.909569
 20
3.637692
 30
-2.816651
 11
5.909918
 21
3.951281
 31
-2.816651
  0
ARC
  8
0
  5
4C9C
 10
6.615073
 20
3.076062
 30
-2.816734
 40
0.274072
 50
179.936359
 51
269.936359
  0
ARC
  8
0
  5
4C9D
 10
6.615421
 20
3.389651
 30
-2.816734
 40
0.274072
 50
89.936359
 51
179.936359
  0
LINE
  8
0
  5
4C9E
 10
6.341001
 20
3.076367
 30
-2.816734
 11
6.341349
 21
3.389956
 31
-2.816734
  0
ARC
  8
0
  5
4C9F
 10
6.613997
 20
2.107273
 30
-2.816734
 40
0.274072
 50
179.936359
 51
269.936359
  0
ARC
  8
0
  5
4CA0
 10
6.614345
 20
2.420862
 30
-2.816734
 40
0.274072
 50
89.936359
 51
179.936359
  0
LINE
  8
0
  5
4CA1
 10
6.339925
 20
2.107578
 30
-2.816734
 11
6.340273
 21
2.421167
 31
-2.816734
  0
LINE
  8
0
  5
4CA2
 10
5.47857
 20
3.077324
 30
-2.816651
 11
5.478918
 21
3.390913
 31
-2.816651
  0
LINE
  8
0
  5
4CA3
 10
5.477494
 20
2.108536
 30
-2.816651
 11
5.477842
 21
2.422125
 31
-2.816651
  0
ARC
  8
0
  5
4CA4
 10
-6.609511
 20
-1.940869
 30
2.816734
 40
0.274072
 50
0.063641
 51
90.063641
210
0.0
220
0.0
230
-1.0
  0
ARC
  8
0
  5
4CA5
 10
-6.609162
 20
-2.254458
 30
2.816734
 40
0.274072
 50
270.063641
 51
0.063641
210
0.0
220
0.0
230
-1.0
  0
LINE
  8
0
  5
4CA6
 10
6.335438
 20
-1.940565
 30
-2.816734
 11
6.33509
 21
-2.254154
 31
-2.816734
210
0.0
220
0.0
230
-1.0
  0
ARC
  8
0
  5
4CA7
 10
-6.608435
 20
-2.909658
 30
2.816734
 40
0.274072
 50
0.063641
 51
90.063641
210
0.0
220
0.0
230
-1.0
  0
LINE
  8
0
  5
4CA8
 10
5.473007
 20
-1.939607
 30
-2.816651
 11
5.472659
 21
-2.253196
 31
-2.816651
210
0.0
220
0.0
230
-1.0
  0
LINE
  8
0
  5
4CA9
 10
6.334362
 20
-2.909354
 30
-2.816734
 11
6.334014
 21
-3.222943
 31
-2.816734
210
0.0
220
0.0
230
-1.0
  0
LINE
  8
0
  5
4CAA
 10
5.471931
 20
-2.908396
 30
-2.816651
 11
5.471583
 21
-3.221985
 31
-2.816651
210
0.0
220
0.0
230
-1.0
  0
LINE
  8
0
  5
4CAB
 10
9.493088
 20
3.072865
 30
-2.816651
 11
9.493436
 21
3.386454
 31
-2.816651
  0
LINE
  8
0
  5
4CAC
 10
9.492012
 20
2.104076
 30
-2.816651
 11
9.49236
 21
2.417665
 31
-2.816651
  0
LINE
  8
0
  5
4CAD
 10
9.487526
 20
-1.944066
 30
-2.816651
 11
9.487177
 21
-2.257655
 31
-2.816651
210
0.0
220
0.0
230
-1.0
  0
LINE
  8
0
  5
4CAE
 10
9.48645
 20
-2.912855
 30
-2.816651
 11
9.486101
 21
-3.226444
 31
-2.816651
210
0.0
220
0.0
230
-1.0
  0
LINE
  8
0
  5
4CAF
 10
9.989719
 20
4.080168
 30
0.0
 11
-3.572075
 21
4.094629
 31
0.0
  0
LINE
  8
0
  5
4CB0
 10
9.988812
 20
-3.920212
 30
0.0
 11
-3.580961
 21
-3.905751
 31
0.0
  0
LINE
  8
0
  5
4CB1
 10
5.478823
 20
3.305359
 30
0.0
 11
2.326736
 21
3.30886
 31
0.0
  0
LINE
  8
0
  5
4CB2
 10
5.478585
 20
3.090918
 30
0.0
 11
2.326498
 21
3.09442
 31
0.0
  0
LINE
  8
0
  5
4CB3
 10
5.446865
 20
3.519835
 30
0.0
 11
2.35917
 21
3.523265
 31
0.0
  0
LINE
  8
0
  5
4CB4
 10
5.20515
 20
3.66529
 30
0.0
 11
2.601207
 21
3.668182
 31
0.0
  0
LINE
  8
0
  5
4CB5
 10
5.445789
 20
2.551046
 30
0.0
 11
2.358094
 21
2.554476
 31
0.0
  0
LINE
  8
0
  5
4CB6
 10
5.477747
 20
2.33657
 30
0.0
 11
2.32566
 21
2.340071
 31
0.0
  0
LINE
  8
0
  5
4CB7
 10
5.389682
 20
1.907786
 30
0.0
 11
2.412772
 21
1.911093
 31
0.0
  0
LINE
  8
0
  5
4CB8
 10
5.477509
 20
2.122129
 30
0.0
 11
2.325422
 21
2.125631
 31
0.0
  0
LINE
  8
0
  5
4CB9
 10
5.203117
 20
1.834768
 30
0.0
 11
2.599174
 21
1.83766
 31
0.0
  0
LINE
  8
0
  5
4CBA
 10
5.390758
 20
2.876575
 30
0.0
 11
2.413848
 21
2.879882
 31
0.0
  0
LINE
  8
0
  5
4CBB
 10
5.204193
 20
2.803557
 30
0.0
 11
2.60025
 21
2.806449
 31
0.0
  0
LINE
  8
0
  5
4CBC
 10
5.204074
 20
2.696501
 30
0.0
 11
2.600131
 21
2.699393
 31
0.0
  0
LINE
  8
0
  5
4CBD
 10
5.44032
 20
-2.382046
 30
0.0
 11
2.352625
 21
-2.378617
 31
0.0
210
0.0
220
0.0
230
-1.0
  0
LINE
  8
0
  5
4CBE
 10
5.472754
 20
-2.167641
 30
0.0
 11
2.320667
 21
-2.16414
 31
0.0
210
0.0
220
0.0
230
-1.0
  0
LINE
  8
0
  5
4CBF
 10
5.385642
 20
-1.738663
 30
0.0
 11
2.408732
 21
-1.735356
 31
0.0
210
0.0
220
0.0
230
-1.0
  0
LINE
  8
0
  5
4CC0
 10
5.472992
 20
-1.953201
 30
0.0
 11
2.320905
 21
-1.9497
 31
0.0
210
0.0
220
0.0
230
-1.0
  0
LINE
  8
0
  5
4CC1
 10
5.19924
 20
-1.66523
 30
0.0
 11
2.595297
 21
-1.662338
 31
0.0
210
0.0
220
0.0
230
-1.0
  0
LINE
  8
0
  5
4CC2
 10
5.439244
 20
-3.350835
 30
0.0
 11
2.351549
 21
-3.347406
 31
0.0
210
0.0
220
0.0
230
-1.0
  0
LINE
  8
0
  5
4CC3
 10
5.471678
 20
-3.13643
 30
0.0
 11
2.319591
 21
-3.132929
 31
0.0
210
0.0
220
0.0
230
-1.0
  0
LINE
  8
0
  5
4CC4
 10
5.384566
 20
-2.707452
 30
0.0
 11
2.407656
 21
-2.704145
 31
0.0
210
0.0
220
0.0
230
-1.0
  0
LINE
  8
0
  5
4CC5
 10
5.471916
 20
-2.92199
 30
0.0
 11
2.319829
 21
-2.918489
 31
0.0
210
0.0
220
0.0
230
-1.0
  0
LINE
  8
0
  5
4CC6
 10
5.198164
 20
-2.634019
 30
0.0
 11
2.594221
 21
-2.631127
 31
0.0
210
0.0
220
0.0
230
-1.0
  0
LINE
  8
0
  5
4CC7
 10
5.197206
 20
-3.495753
 30
0.0
 11
2.593264
 21
-3.49286
 31
0.0
210
0.0
220
0.0
230
-1.0
  0
LINE
  8
0
  5
4CC8
 10
5.198282
 20
-2.526964
 30
0.0
 11
2.59434
 21
-2.524071
 31
0.0
210
0.0
220
0.0
230
-1.0
  0
LINE
  8
0
  5
4CC9
 10
-3.580961
 20
-3.905751
 30
0.0
 11
-3.580271
 21
-3.28408
 31
0.0
  0
LINE
  8
0
  5
4CCA
 10
3.037832
 20
-3.602267
 30
0.0
 11
-3.580616
 21
-3.594915
 31
0.0
  0
LINE
  8
0
  5
4CCB
 10
-1.579422
 20
-3.849692
 30
0.0
 11
-2.084649
 21
-3.849131
 31
0.0
  0
LINE
  8
0
  5
4CCC
 10
-1.579422
 20
-3.849692
 30
0.0
 11
-2.084649
 21
-3.849131
 31
0.0
  0
LINE
  8
0
  5
4CCD
 10
0.072279
 20
-3.851527
 30
0.0
 11
-0.044031
 21
-3.598844
 31
0.0
  0
LINE
  8
0
  5
4CCE
 10
0.577506
 20
-3.852088
 30
0.0
 11
0.072279
 21
-3.851527
 31
0.0
  0
LINE
  8
0
  5
4CCF
 10
0.694377
 20
-3.599664
 30
0.0
 11
0.577506
 21
-3.852088
 31
0.0
  0
LINE
  8
0
  5
4CD0
 10
-1.462551
 20
-3.597268
 30
0.0
 11
-1.579422
 21
-3.849692
 31
0.0
  0
LINE
  8
0
  5
4CD1
 10
-1.462551
 20
-3.597268
 30
0.0
 11
-1.579422
 21
-3.849692
 31
0.0
  0
LINE
  8
0
  5
4CD2
 10
0.072279
 20
-3.851527
 30
0.0
 11
-0.044031
 21
-3.598844
 31
0.0
  0
LINE
  8
0
  5
4CD3
 10
0.577506
 20
-3.852088
 30
0.0
 11
0.072279
 21
-3.851527
 31
0.0
  0
LINE
  8
0
  5
4CD4
 10
0.694377
 20
-3.599664
 30
0.0
 11
0.577506
 21
-3.852088
 31
0.0
  0
LINE
  8
0
  5
4CD5
 10
-2.084649
 20
-3.849131
 30
0.0
 11
-2.200959
 21
-3.596448
 31
0.0
  0
LINE
  8
0
  5
4CD6
 10
-2.084649
 20
-3.849131
 30
0.0
 11
-2.200959
 21
-3.596448
 31
0.0
  0
LINE
  8
0
  5
4CD7
 10
-8.148981
 20
3.22294
 30
0.0
 11
-11.236675
 21
3.22637
 31
0.0
  0
LINE
  8
0
  5
4CD8
 10
-8.117023
 20
3.008464
 30
0.0
 11
-11.26911
 21
3.011965
 31
0.0
  0
LINE
  8
0
  5
4CD9
 10
-8.205088
 20
2.57968
 30
0.0
 11
-11.181998
 21
2.582987
 31
0.0
  0
LINE
  8
0
  5
4CDA
 10
-8.117261
 20
2.794023
 30
0.0
 11
-11.269348
 21
2.797524
 31
0.0
  0
ARC
  8
0
  5
4CDB
 10
-8.391348
 20
2.780734
 30
0.0
 40
0.274072
 50
269.936359
 51
359.936359
  0
LINE
  8
0
  5
4CDC
 10
-8.155921
 20
-3.025052
 30
0.0
 11
-11.243615
 21
-3.021622
 31
0.0
210
0.0
220
0.0
230
-1.0
  0
LINE
  8
0
  5
4CDD
 10
-8.123486
 20
-2.810647
 30
0.0
 11
-11.275573
 21
-2.807146
 31
0.0
210
0.0
220
0.0
230
-1.0
  0
LINE
  8
0
  5
4CDE
 10
-8.210598
 20
-2.381668
 30
0.0
 11
-11.187509
 21
-2.378362
 31
0.0
210
0.0
220
0.0
230
-1.0
  0
LINE
  8
0
  5
4CDF
 10
-8.123248
 20
-2.596206
 30
0.0
 11
-11.275335
 21
-2.592705
 31
0.0
210
0.0
220
0.0
230
-1.0
  0
LINE
  8
0
  5
4CE0
 10
-7.870095
 20
2.988472
 30
0.0
 11
-8.437988
 21
2.96249
 31
0.0
  0
ARC
  8
0
  5
4CE1
 10
-8.391
 20
3.094323
 30
0.0
 40
0.274072
 50
359.936359
 51
89.936359
  0
LINE
  8
0
  5
4CE2
 10
-8.571525
 20
2.563453
 30
0.0
 11
-8.225601
 21
2.45662
 31
0.0
  0
LINE
  8
0
  5
4CE3
 10
-8.659219
 20
3.494982
 30
0.0
 11
-8.206712
 21
3.485609
 31
0.0
  0
LINE
  8
0
  5
4CE4
 10
-8.659219
 20
3.494982
 30
0.0
 11
-8.206712
 21
3.485609
 31
0.0
  0
LINE
  8
0
  5
4CE5
 10
-8.571525
 20
2.563453
 30
0.0
 11
-8.225601
 21
2.45662
 31
0.0
  0
LINE
  8
0
  5
4CE6
 10
-7.870095
 20
2.988472
 30
0.0
 11
-8.437988
 21
2.96249
 31
0.0
  0
ARC
  8
0
  5
4CE7
 10
8.397305
 20
-2.582308
 30
0.0
 40
0.274072
 50
90.063641
 51
180.063641
210
0.0
220
0.0
230
-1.0
  0
LINE
  8
0
  5
4CE8
 10
-8.666762
 20
-3.29596
 30
0.0
 11
-8.214236
 21
-3.287592
 31
0.0
  0
LINE
  8
0
  5
4CE9
 10
-8.576998
 20
-2.364628
 30
0.0
 11
-8.230838
 21
-2.258563
 31
0.0
  0
ARC
  8
0
  5
4CEA
 10
8.397654
 20
-2.895897
 30
0.0
 40
0.274072
 50
180.063641
 51
270.063641
210
0.0
220
0.0
230
-1.0
  0
LINE
  8
0
  5
4CEB
 10
-7.876515
 20
-2.791203
 30
0.0
 11
-8.444349
 21
-2.76396
 31
0.0
  0
LINE
  8
0
  5
4CEC
 10
-7.876515
 20
-2.791203
 30
0.0
 11
-8.444349
 21
-2.76396
 31
0.0
  0
LINE
  8
0
  5
4CED
 10
-8.576998
 20
-2.364628
 30
0.0
 11
-8.230838
 21
-2.258563
 31
0.0
  0
LINE
  8
0
  5
4CEE
 10
-8.666762
 20
-3.29596
 30
0.0
 11
-8.214236
 21
-3.287592
 31
0.0
  0
LINE
  8
0
  5
4CEF
 10
-8.397001
 20
-2.308236
 30
0.0
 11
-11.000944
 21
-2.305343
 31
0.0
210
0.0
220
0.0
230
-1.0
  0
LINE
  8
0
  5
4CF0
 10
-9.962259
 20
-3.347745
 30
0.0
 11
-8.666762
 21
-3.29596
 31
0.0
  0
LINE
  8
0
  5
4CF1
 10
-8.790184
 20
-2.57729
 30
0.0
 11
-10.662161
 21
-2.397795
 31
0.0
  0
LINE
  8
0
  5
4CF2
 10
-8.397958
 20
-3.169969
 30
0.0
 11
-11.001901
 21
-3.167077
 31
0.0
210
0.0
220
0.0
230
-1.0
  0
LINE
  8
0
  5
4CF3
 10
-8.444349
 20
-2.76396
 30
0.0
 11
-10.697919
 21
-2.637266
 31
0.0
  0
LINE
  8
0
  5
4CF4
 10
-8.591808
 20
0.099432
 30
0.0
 11
-8.607292
 21
2.315111
 31
0.0
  0
LINE
  8
0
  5
4CF5
 10
-8.591808
 20
0.099432
 30
0.0
 11
-8.607292
 21
2.315111
 31
0.0
  0
LINE
  8
0
  5
4CF6
 10
-8.444349
 20
-2.76396
 30
0.0
 11
-10.697919
 21
-2.637266
 31
0.0
  0
LINE
  8
0
  5
4CF7
 10
-8.790184
 20
-2.57729
 30
0.0
 11
-10.662161
 21
-2.397795
 31
0.0
  0
LINE
  8
0
  5
4CF8
 10
-9.962259
 20
-3.347745
 30
0.0
 11
-8.666762
 21
-3.29596
 31
0.0
  0
LINE
  8
0
  5
4CF9
 10
-8.591808
 20
0.099432
 30
0.0
 11
-8.612214
 21
-2.116207
 31
0.0
  0
LINE
  8
0
  5
4CFA
 10
-8.612214
 20
-2.116207
 30
0.0
 11
-8.576998
 21
-2.364628
 31
0.0
  0
LINE
  8
0
  5
4CFB
 10
-8.591808
 20
0.099432
 30
0.0
 11
-8.612214
 21
-2.116207
 31
0.0
  0
LINE
  8
0
  5
4CFC
 10
-8.612214
 20
-2.116207
 30
0.0
 11
-8.576998
 21
-2.364628
 31
0.0
  0
LINE
  8
0
  5
4CFD
 10
-8.391653
 20
2.506662
 30
0.0
 11
-10.995595
 21
2.509554
 31
0.0
  0
LINE
  8
0
  5
4CFE
 10
-8.955795
 20
0.099837
 30
0.0
 11
-8.956896
 21
-0.891657
 31
0.0
  0
LINE
  8
0
  5
4CFF
 10
-8.956896
 20
-0.891657
 30
0.0
 11
-9.88831
 21
-0.677724
 31
0.0
  0
LINE
  8
0
  5
4D00
 10
-9.88831
 20
-0.677724
 30
0.0
 11
-9.953126
 21
0.100944
 31
0.0
  0
LINE
  8
0
  5
4D01
 10
-9.88831
 20
-0.677724
 30
0.0
 11
-9.054222
 21
-0.643167
 31
0.0
  0
LINE
  8
0
  5
4D02
 10
-9.054222
 20
-0.643167
 30
0.0
 11
-9.053396
 21
0.099945
 31
0.0
  0
LINE
  8
0
  5
4D03
 10
-9.054222
 20
-0.643167
 30
0.0
 11
-8.956896
 21
-0.891657
 31
0.0
  0
LINE
  8
0
  5
4D04
 10
-11.275453
 20
-3.355158
 30
0.0
 11
-9.962259
 21
-3.347745
 31
0.0
  0
LINE
  8
0
  5
4D05
 10
-8.437988
 20
2.96249
 30
0.0
 11
-10.691834
 21
2.840803
 31
0.0
  0
LINE
  8
0
  5
4D06
 10
-8.390696
 20
3.368395
 30
0.0
 11
-10.994638
 21
3.371287
 31
0.0
  0
LINE
  8
0
  5
4D07
 10
-8.607292
 20
2.315111
 30
0.0
 11
-8.571525
 21
2.563453
 31
0.0
  0
LINE
  8
0
  5
4D08
 10
-8.784237
 20
2.776588
 30
0.0
 11
-10.656609
 21
2.601253
 31
0.0
  0
LINE
  8
0
  5
4D09
 10
-11.267772
 20
3.559975
 30
0.0
 11
-9.954598
 21
3.549646
 31
0.0
  0
LINE
  8
0
  5
4D0A
 10
-9.954598
 20
3.549646
 30
0.0
 11
-8.659219
 21
3.494982
 31
0.0
  0
LINE
  8
0
  5
4D0B
 10
-9.052571
 20
0.843057
 30
0.0
 11
-8.954693
 21
1.09133
 31
0.0
  0
LINE
  8
0
  5
4D0C
 10
-9.886581
 20
0.879466
 30
0.0
 11
-9.052571
 21
0.843057
 31
0.0
  0
LINE
  8
0
  5
4D0D
 10
-9.052571
 20
0.843057
 30
0.0
 11
-9.053396
 21
0.099945
 31
0.0
  0
LINE
  8
0
  5
4D0E
 10
-8.955795
 20
0.099837
 30
0.0
 11
-8.954693
 21
1.09133
 31
0.0
  0
LINE
  8
0
  5
4D0F
 10
-8.954693
 20
1.09133
 30
0.0
 11
-9.886581
 21
0.879466
 31
0.0
  0
LINE
  8
0
  5
4D10
 10
-9.886581
 20
0.879466
 30
0.0
 11
-9.953126
 21
0.100944
 31
0.0
  0
LINE
  8
0
  5
4D11
 10
-8.955795
 20
0.099837
 30
0.0
 11
-8.954693
 21
1.09133
 31
0.0
  0
LINE
  8
0
  5
4D12
 10
-8.954693
 20
1.09133
 30
0.0
 11
-9.886581
 21
0.879466
 31
0.0
  0
LINE
  8
0
  5
4D13
 10
-9.886581
 20
0.879466
 30
0.0
 11
-9.953126
 21
0.100944
 31
0.0
  0
LINE
  8
0
  5
4D14
 10
-9.886581
 20
0.879466
 30
0.0
 11
-9.052571
 21
0.843057
 31
0.0
  0
LINE
  8
0
  5
4D15
 10
-9.052571
 20
0.843057
 30
0.0
 11
-9.053396
 21
0.099945
 31
0.0
  0
LINE
  8
0
  5
4D16
 10
-9.052571
 20
0.843057
 30
0.0
 11
-8.954693
 21
1.09133
 31
0.0
  0
LINE
  8
0
  5
4D17
 10
-11.267772
 20
3.559975
 30
0.0
 11
-9.954598
 21
3.549646
 31
0.0
  0
LINE
  8
0
  5
4D18
 10
-9.954598
 20
3.549646
 30
0.0
 11
-8.659219
 21
3.494982
 31
0.0
  0
LINE
  8
0
  5
4D19
 10
-8.784237
 20
2.776588
 30
0.0
 11
-10.656609
 21
2.601253
 31
0.0
  0
LINE
  8
0
  5
4D1A
 10
-8.607292
 20
2.315111
 30
0.0
 11
-8.571525
 21
2.563453
 31
0.0
  0
LINE
  8
0
  5
4D1B
 10
-8.437988
 20
2.96249
 30
0.0
 11
-10.691834
 21
2.840803
 31
0.0
  0
LINE
  8
0
  5
4D1C
 10
-11.275453
 20
-3.355158
 30
0.0
 11
-9.962259
 21
-3.347745
 31
0.0
  0
LINE
  8
0
  5
4D1D
 10
-9.054222
 20
-0.643167
 30
0.0
 11
-8.956896
 21
-0.891657
 31
0.0
  0
LINE
  8
0
  5
4D1E
 10
-9.88831
 20
-0.677724
 30
0.0
 11
-9.054222
 21
-0.643167
 31
0.0
  0
LINE
  8
0
  5
4D1F
 10
-9.054222
 20
-0.643167
 30
0.0
 11
-9.053396
 21
0.099945
 31
0.0
  0
LINE
  8
0
  5
4D20
 10
-8.955795
 20
0.099837
 30
0.0
 11
-8.956896
 21
-0.891657
 31
0.0
  0
LINE
  8
0
  5
4D21
 10
-8.956896
 20
-0.891657
 30
0.0
 11
-9.88831
 21
-0.677724
 31
0.0
  0
LINE
  8
0
  5
4D22
 10
-9.88831
 20
-0.677724
 30
0.0
 11
-9.953126
 21
0.100944
 31
0.0
  0
LINE
  8
0
  5
4D23
 10
-13.731591
 20
-2.302814
 30
0.0
 11
-13.728917
 21
0.104346
 31
0.0
  0
LINE
  8
0
  5
4D24
 10
-13.168954
 20
-3.099955
 30
0.0
 11
-13.731591
 21
-2.302814
 31
0.0
  0
LINE
  8
0
  5
4D25
 10
-13.324516
 20
-3.196918
 30
0.0
 11
-13.168954
 21
-3.099955
 31
0.0
  0
LINE
  8
0
  5
4D26
 10
-13.945319
 20
-2.28315
 30
0.0
 11
-13.324516
 21
-3.196918
 31
0.0
  0
LINE
  8
0
  5
4D27
 10
-13.942667
 20
0.104584
 30
0.0
 11
-13.945319
 21
-2.28315
 31
0.0
  0
LINE
  8
0
  5
4D28
 10
-13.538789
 20
-1.040259
 30
0.0
 11
-13.730188
 21
-1.040047
 31
0.0
  0
LINE
  8
0
  5
4D29
 10
-13.539048
 20
-1.273386
 30
0.0
 11
-13.730447
 21
-1.273173
 31
0.0
  0
LINE
  8
0
  5
4D2A
 10
-12.432251
 20
-3.354665
 30
0.0
 11
-11.275453
 21
-3.355158
 31
0.0
  0
LINE
  8
0
  5
4D2B
 10
-12.636228
 20
-3.265731
 30
0.0
 11
-12.432251
 21
-3.354665
 31
0.0
  0
LINE
  8
0
  5
4D2C
 10
-12.76035
 20
-3.176885
 30
0.0
 11
-12.636228
 21
-3.265731
 31
0.0
  0
LINE
  8
0
  5
4D2D
 10
-13.079024
 20
-2.502352
 30
0.0
 11
-12.76035
 21
-3.176885
 31
0.0
  0
LINE
  8
0
  5
4D2E
 10
-13.194204
 20
-2.351421
 30
0.0
 11
-13.079024
 21
-2.502352
 31
0.0
  0
LINE
  8
0
  5
4D2F
 10
-13.495753
 20
-2.235766
 30
0.0
 11
-13.194204
 21
-2.351421
 31
0.0
  0
LINE
  8
0
  5
4D30
 10
-13.539871
 20
-2.013947
 30
0.0
 11
-13.495753
 21
-2.235766
 31
0.0
  0
LINE
  8
0
  5
4D31
 10
-13.537518
 20
0.104134
 30
0.0
 11
-13.539871
 21
-2.013947
 31
0.0
  0
LINE
  8
0
  5
4D32
 10
-12.538114
 20
-2.804559
 30
0.0
 11
-12.280831
 21
-2.831457
 31
0.0
  0
LINE
  8
0
  5
4D33
 10
-12.538449
 20
-3.106165
 30
0.0
 11
-12.538114
 21
-2.804559
 31
0.0
  0
LINE
  8
0
  5
4D34
 10
-12.281136
 20
-3.106451
 30
0.0
 11
-12.538449
 21
-3.106165
 31
0.0
  0
LINE
  8
0
  5
4D35
 10
-12.280831
 20
-2.831457
 30
0.0
 11
-12.281136
 21
-3.106451
 31
0.0
  0
LINE
  8
0
  5
4D36
 10
-12.80363
 20
-2.201051
 30
0.0
 11
-13.41574
 21
-2.093922
 31
0.0
  0
LINE
  8
0
  5
4D37
 10
-10.662161
 20
-2.397795
 30
0.0
 11
-12.80363
 21
-2.201051
 31
0.0
  0
LINE
  8
0
  5
4D38
 10
-13.4409
 20
-0.781019
 30
0.0
 11
-13.439917
 21
0.104025
 31
0.0
  0
LINE
  8
0
  5
4D39
 10
-13.433485
 20
-2.093902
 30
0.0
 11
-13.4409
 21
-0.781019
 31
0.0
  0
LINE
  8
0
  5
4D3A
 10
-13.45133
 20
-2.18259
 30
0.0
 11
-13.433485
 21
-2.093902
 31
0.0
  0
LINE
  8
0
  5
4D3B
 10
-13.495753
 20
-2.235766
 30
0.0
 11
-13.45133
 21
-2.18259
 31
0.0
  0
LINE
  8
0
  5
4D3C
 10
-13.404758
 20
-0.195588
 30
0.0
 11
-13.404425
 21
0.103986
 31
0.0
  0
LINE
  8
0
  5
4D3D
 10
-13.06756
 20
-0.16935
 30
0.0
 11
-13.404758
 21
-0.195588
 31
0.0
  0
LINE
  8
0
  5
4D3E
 10
-13.067256
 20
0.103611
 30
0.0
 11
-13.06756
 21
-0.16935
 31
0.0
  0
LINE
  8
0
  5
4D3F
 10
-12.803896
 20
-2.440562
 30
0.0
 11
-13.194204
 21
-2.351421
 31
0.0
  0
LINE
  8
0
  5
4D40
 10
-10.697919
 20
-2.637266
 30
0.0
 11
-12.803896
 21
-2.440562
 31
0.0
  0
LINE
  8
0
  5
4D41
 10
-12.798245
 20
2.647193
 30
0.0
 11
-13.18875
 21
2.558919
 31
0.0
  0
LINE
  8
0
  5
4D42
 10
-10.691834
 20
2.840803
 30
0.0
 11
-12.798245
 21
2.647193
 31
0.0
  0
LINE
  8
0
  5
4D43
 10
-13.404093
 20
0.403559
 30
0.0
 11
-13.404425
 21
0.103986
 31
0.0
  0
LINE
  8
0
  5
4D44
 10
-13.066953
 20
0.376573
 30
0.0
 11
-13.404093
 21
0.403559
 31
0.0
  0
LINE
  8
0
  5
4D45
 10
-13.067256
 20
0.103611
 30
0.0
 11
-13.066953
 21
0.376573
 31
0.0
  0
LINE
  8
0
  5
4D46
 10
-13.438934
 20
0.989069
 30
0.0
 11
-13.439917
 21
0.104025
 31
0.0
  0
LINE
  8
0
  5
4D47
 10
-13.428603
 20
2.301933
 30
0.0
 11
-13.438934
 21
0.989069
 31
0.0
  0
LINE
  8
0
  5
4D48
 10
-13.44625
 20
2.39066
 30
0.0
 11
-13.428603
 21
2.301933
 31
0.0
  0
LINE
  8
0
  5
4D49
 10
-13.490555
 20
2.443934
 30
0.0
 11
-13.44625
 21
2.39066
 31
0.0
  0
LINE
  8
0
  5
4D4A
 10
-12.798511
 20
2.407682
 30
0.0
 11
-13.410857
 21
2.301913
 31
0.0
  0
LINE
  8
0
  5
4D4B
 10
-10.656609
 20
2.601253
 30
0.0
 11
-12.798511
 21
2.407682
 31
0.0
  0
LINE
  8
0
  5
4D4C
 10
-12.531655
 20
3.010599
 30
0.0
 11
-12.274312
 21
3.036925
 31
0.0
  0
LINE
  8
0
  5
4D4D
 10
-12.53132
 20
3.312205
 30
0.0
 11
-12.531655
 21
3.010599
 31
0.0
  0
LINE
  8
0
  5
4D4E
 10
-12.274007
 20
3.311919
 30
0.0
 11
-12.53132
 21
3.312205
 31
0.0
  0
LINE
  8
0
  5
4D4F
 10
-12.274312
 20
3.036925
 30
0.0
 11
-12.274007
 21
3.311919
 31
0.0
  0
LINE
  8
0
  5
4D50
 10
-12.42457
 20
3.560468
 30
0.0
 11
-11.267772
 21
3.559975
 31
0.0
  0
LINE
  8
0
  5
4D51
 10
-12.628744
 20
3.471987
 30
0.0
 11
-12.42457
 21
3.560468
 31
0.0
  0
LINE
  8
0
  5
4D52
 10
-12.753063
 20
3.383417
 30
0.0
 11
-12.628744
 21
3.471987
 31
0.0
  0
LINE
  8
0
  5
4D53
 10
-13.073235
 20
2.709594
 30
0.0
 11
-12.753063
 21
3.383417
 31
0.0
  0
LINE
  8
0
  5
4D54
 10
-13.18875
 20
2.558919
 30
0.0
 11
-13.073235
 21
2.709594
 31
0.0
  0
LINE
  8
0
  5
4D55
 10
-13.490555
 20
2.443934
 30
0.0
 11
-13.18875
 21
2.558919
 31
0.0
  0
LINE
  8
0
  5
4D56
 10
-13.535166
 20
2.222214
 30
0.0
 11
-13.490555
 21
2.443934
 31
0.0
  0
LINE
  8
0
  5
4D57
 10
-13.537518
 20
0.104134
 30
0.0
 11
-13.535166
 21
2.222214
 31
0.0
  0
LINE
  8
0
  5
4D58
 10
-13.535988
 20
1.481653
 30
0.0
 11
-13.727387
 21
1.481865
 31
0.0
  0
LINE
  8
0
  5
4D59
 10
-13.536247
 20
1.248527
 30
0.0
 11
-13.727646
 21
1.248739
 31
0.0
  0
LINE
  8
0
  5
4D5A
 10
-13.726244
 20
2.511506
 30
0.0
 11
-13.728917
 21
0.104346
 31
0.0
  0
LINE
  8
0
  5
4D5B
 10
-13.161837
 20
3.307395
 30
0.0
 11
-13.726244
 21
2.511506
 31
0.0
  0
LINE
  8
0
  5
4D5C
 10
-13.317183
 20
3.404704
 30
0.0
 11
-13.161837
 21
3.307395
 31
0.0
  0
LINE
  8
0
  5
4D5D
 10
-13.940015
 20
2.492317
 30
0.0
 11
-13.317183
 21
3.404704
 31
0.0
  0
LINE
  8
0
  5
4D5E
 10
-13.942667
 20
0.104584
 30
0.0
 11
-13.940015
 21
2.492317
 31
0.0
  0
LINE
  8
0
  5
4D5F
 10
-13.726244
 20
2.511506
 30
0.0
 11
-13.728917
 21
0.104346
 31
0.0
  0
LINE
  8
0
  5
4D60
 10
-13.161837
 20
3.307395
 30
0.0
 11
-13.726244
 21
2.511506
 31
0.0
  0
LINE
  8
0
  5
4D61
 10
-13.317183
 20
3.404704
 30
0.0
 11
-13.161837
 21
3.307395
 31
0.0
  0
LINE
  8
0
  5
4D62
 10
-13.940015
 20
2.492317
 30
0.0
 11
-13.317183
 21
3.404704
 31
0.0
  0
LINE
  8
0
  5
4D63
 10
-13.942667
 20
0.104584
 30
0.0
 11
-13.940015
 21
2.492317
 31
0.0
  0
LINE
  8
0
  5
4D64
 10
-13.536247
 20
1.248527
 30
0.0
 11
-13.727646
 21
1.248739
 31
0.0
  0
LINE
  8
0
  5
4D65
 10
-13.535988
 20
1.481653
 30
0.0
 11
-13.727387
 21
1.481865
 31
0.0
  0
LINE
  8
0
  5
4D66
 10
-12.42457
 20
3.560468
 30
0.0
 11
-11.267772
 21
3.559975
 31
0.0
  0
LINE
  8
0
  5
4D67
 10
-12.628744
 20
3.471987
 30
0.0
 11
-12.42457
 21
3.560468
 31
0.0
  0
LINE
  8
0
  5
4D68
 10
-12.753063
 20
3.383417
 30
0.0
 11
-12.628744
 21
3.471987
 31
0.0
  0
LINE
  8
0
  5
4D69
 10
-13.073235
 20
2.709594
 30
0.0
 11
-12.753063
 21
3.383417
 31
0.0
  0
LINE
  8
0
  5
4D6A
 10
-13.18875
 20
2.558919
 30
0.0
 11
-13.073235
 21
2.709594
 31
0.0
  0
LINE
  8
0
  5
4D6B
 10
-13.490555
 20
2.443934
 30
0.0
 11
-13.18875
 21
2.558919
 31
0.0
  0
LINE
  8
0
  5
4D6C
 10
-13.535166
 20
2.222214
 30
0.0
 11
-13.490555
 21
2.443934
 31
0.0
  0
LINE
  8
0
  5
4D6D
 10
-13.537518
 20
0.104134
 30
0.0
 11
-13.535166
 21
2.222214
 31
0.0
  0
LINE
  8
0
  5
4D6E
 10
-12.531655
 20
3.010599
 30
0.0
 11
-12.274312
 21
3.036925
 31
0.0
  0
LINE
  8
0
  5
4D6F
 10
-12.53132
 20
3.312205
 30
0.0
 11
-12.531655
 21
3.010599
 31
0.0
  0
LINE
  8
0
  5
4D70
 10
-12.274007
 20
3.311919
 30
0.0
 11
-12.53132
 21
3.312205
 31
0.0
  0
LINE
  8
0
  5
4D71
 10
-12.274312
 20
3.036925
 30
0.0
 11
-12.274007
 21
3.311919
 31
0.0
  0
LINE
  8
0
  5
4D72
 10
-12.798511
 20
2.407682
 30
0.0
 11
-13.410857
 21
2.301913
 31
0.0
  0
LINE
  8
0
  5
4D73
 10
-10.656609
 20
2.601253
 30
0.0
 11
-12.798511
 21
2.407682
 31
0.0
  0
LINE
  8
0
  5
4D74
 10
-13.438934
 20
0.989069
 30
0.0
 11
-13.439917
 21
0.104025
 31
0.0
  0
LINE
  8
0
  5
4D75
 10
-13.428603
 20
2.301933
 30
0.0
 11
-13.438934
 21
0.989069
 31
0.0
  0
LINE
  8
0
  5
4D76
 10
-13.44625
 20
2.39066
 30
0.0
 11
-13.428603
 21
2.301933
 31
0.0
  0
LINE
  8
0
  5
4D77
 10
-13.490555
 20
2.443934
 30
0.0
 11
-13.44625
 21
2.39066
 31
0.0
  0
LINE
  8
0
  5
4D78
 10
-13.404093
 20
0.403559
 30
0.0
 11
-13.404425
 21
0.103986
 31
0.0
  0
LINE
  8
0
  5
4D79
 10
-13.066953
 20
0.376573
 30
0.0
 11
-13.404093
 21
0.403559
 31
0.0
  0
LINE
  8
0
  5
4D7A
 10
-13.067256
 20
0.103611
 30
0.0
 11
-13.066953
 21
0.376573
 31
0.0
  0
LINE
  8
0
  5
4D7B
 10
-12.798245
 20
2.647193
 30
0.0
 11
-13.18875
 21
2.558919
 31
0.0
  0
LINE
  8
0
  5
4D7C
 10
-10.691834
 20
2.840803
 30
0.0
 11
-12.798245
 21
2.647193
 31
0.0
  0
LINE
  8
0
  5
4D7D
 10
-12.803896
 20
-2.440562
 30
0.0
 11
-13.194204
 21
-2.351421
 31
0.0
  0
LINE
  8
0
  5
4D7E
 10
-10.697919
 20
-2.637266
 30
0.0
 11
-12.803896
 21
-2.440562
 31
0.0
  0
LINE
  8
0
  5
4D7F
 10
-13.404758
 20
-0.195588
 30
0.0
 11
-13.404425
 21
0.103986
 31
0.0
  0
LINE
  8
0
  5
4D80
 10
-13.06756
 20
-0.16935
 30
0.0
 11
-13.404758
 21
-0.195588
 31
0.0
  0
LINE
  8
0
  5
4D81
 10
-13.067256
 20
0.103611
 30
0.0
 11
-13.06756
 21
-0.16935
 31
0.0
  0
LINE
  8
0
  5
4D82
 10
-13.4409
 20
-0.781019
 30
0.0
 11
-13.439917
 21
0.104025
 31
0.0
  0
LINE
  8
0
  5
4D83
 10
-13.433485
 20
-2.093902
 30
0.0
 11
-13.4409
 21
-0.781019
 31
0.0
  0
LINE
  8
0
  5
4D84
 10
-13.45133
 20
-2.18259
 30
0.0
 11
-13.433485
 21
-2.093902
 31
0.0
  0
LINE
  8
0
  5
4D85
 10
-13.495753
 20
-2.235766
 30
0.0
 11
-13.45133
 21
-2.18259
 31
0.0
  0
LINE
  8
0
  5
4D86
 10
-12.80363
 20
-2.201051
 30
0.0
 11
-13.41574
 21
-2.093922
 31
0.0
  0
LINE
  8
0
  5
4D87
 10
-10.662161
 20
-2.397795
 30
0.0
 11
-12.80363
 21
-2.201051
 31
0.0
  0
LINE
  8
0
  5
4D88
 10
-12.538114
 20
-2.804559
 30
0.0
 11
-12.280831
 21
-2.831457
 31
0.0
  0
LINE
  8
0
  5
4D89
 10
-12.538449
 20
-3.106165
 30
0.0
 11
-12.538114
 21
-2.804559
 31
0.0
  0
LINE
  8
0
  5
4D8A
 10
-12.281136
 20
-3.106451
 30
0.0
 11
-12.538449
 21
-3.106165
 31
0.0
  0
LINE
  8
0
  5
4D8B
 10
-12.280831
 20
-2.831457
 30
0.0
 11
-12.281136
 21
-3.106451
 31
0.0
  0
LINE
  8
0
  5
4D8C
 10
-12.432251
 20
-3.354665
 30
0.0
 11
-11.275453
 21
-3.355158
 31
0.0
  0
LINE
  8
0
  5
4D8D
 10
-12.636228
 20
-3.265731
 30
0.0
 11
-12.432251
 21
-3.354665
 31
0.0
  0
LINE
  8
0
  5
4D8E
 10
-12.76035
 20
-3.176885
 30
0.0
 11
-12.636228
 21
-3.265731
 31
0.0
  0
LINE
  8
0
  5
4D8F
 10
-13.079024
 20
-2.502352
 30
0.0
 11
-12.76035
 21
-3.176885
 31
0.0
  0
LINE
  8
0
  5
4D90
 10
-13.194204
 20
-2.351421
 30
0.0
 11
-13.079024
 21
-2.502352
 31
0.0
  0
LINE
  8
0
  5
4D91
 10
-13.495753
 20
-2.235766
 30
0.0
 11
-13.194204
 21
-2.351421
 31
0.0
  0
LINE
  8
0
  5
4D92
 10
-13.539871
 20
-2.013947
 30
0.0
 11
-13.495753
 21
-2.235766
 31
0.0
  0
LINE
  8
0
  5
4D93
 10
-13.537518
 20
0.104134
 30
0.0
 11
-13.539871
 21
-2.013947
 31
0.0
  0
LINE
  8
0
  5
4D94
 10
-13.539048
 20
-1.273386
 30
0.0
 11
-13.730447
 21
-1.273173
 31
0.0
  0
LINE
  8
0
  5
4D95
 10
-13.538789
 20
-1.040259
 30
0.0
 11
-13.730188
 21
-1.040047
 31
0.0
  0
LINE
  8
0
  5
4D96
 10
-13.731591
 20
-2.302814
 30
0.0
 11
-13.728917
 21
0.104346
 31
0.0
  0
LINE
  8
0
  5
4D97
 10
-13.168954
 20
-3.099955
 30
0.0
 11
-13.731591
 21
-2.302814
 31
0.0
  0
LINE
  8
0
  5
4D98
 10
-13.324516
 20
-3.196918
 30
0.0
 11
-13.168954
 21
-3.099955
 31
0.0
  0
LINE
  8
0
  5
4D99
 10
-13.945319
 20
-2.28315
 30
0.0
 11
-13.324516
 21
-3.196918
 31
0.0
  0
LINE
  8
0
  5
4D9A
 10
-13.942667
 20
0.104584
 30
0.0
 11
-13.945319
 21
-2.28315
 31
0.0
  0
LINE
  8
0
  5
4D9B
 10
2.987929
 20
3.776507
 30
0.0
 11
-3.57242
 21
3.783794
 31
0.0
  0
LINE
  8
0
  5
4D9C
 10
2.842613
 20
4.087789
 30
0.0
 11
-3.572075
 21
4.094629
 31
0.0
  0
LINE
  8
0
  5
4D9D
 10
-4.58612
 20
-3.283541
 30
0.0
 11
-5.867539
 21
-2.310757
 31
0.0
  0
LINE
  8
0
  5
4D9E
 10
-5.867539
 20
-2.310757
 30
0.0
 11
-5.864866
 21
0.096403
 31
0.0
  0
LINE
  8
0
  5
4D9F
 10
-4.58612
 20
-3.283541
 30
0.0
 11
-4.582368
 21
0.094979
 31
0.0
  0
LINE
  8
0
  5
4DA0
 10
-8.214236
 20
-3.287592
 30
0.0
 11
-7.921333
 21
-3.199209
 31
0.0
  0
LINE
  8
0
  5
4DA1
 10
-7.921333
 20
-3.199209
 30
0.0
 11
-7.839249
 21
-2.791245
 31
0.0
  0
LINE
  8
0
  5
4DA2
 10
-8.230838
 20
-2.258563
 30
0.0
 11
-8.177513
 21
-2.178785
 31
0.0
  0
LINE
  8
0
  5
4DA3
 10
-8.177513
 20
-2.178785
 30
0.0
 11
-8.159599
 21
-2.028002
 31
0.0
  0
LINE
  8
0
  5
4DA4
 10
-8.159599
 20
-2.028002
 30
0.0
 11
-8.148145
 21
0.098939
 31
0.0
  0
LINE
  8
0
  5
4DA5
 10
-6.030821
 20
-2.669062
 30
0.0
 11
-8.178035
 21
-2.648936
 31
0.0
  0
LINE
  8
0
  5
4DA6
 10
-8.178035
 20
-2.648936
 30
0.0
 11
-7.885063
 21
-2.498458
 31
0.0
  0
LINE
  8
0
  5
4DA7
 10
-7.885063
 20
-2.498458
 30
0.0
 11
-5.968553
 21
-2.527199
 31
0.0
  0
LINE
  8
0
  5
4DA8
 10
-5.968553
 20
-2.527199
 30
0.0
 11
-6.030821
 21
-2.669062
 31
0.0
  0
LINE
  8
0
  5
4DA9
 10
-7.37993
 20
-3.057878
 30
0.0
 11
-7.459786
 21
-3.057789
 31
0.0
  0
LINE
  8
0
  5
4DAA
 10
-7.459786
 20
-3.057789
 30
0.0
 11
-7.45949
 21
-2.791666
 31
0.0
  0
LINE
  8
0
  5
4DAB
 10
-7.556909
 20
-2.654758
 30
0.0
 11
-7.414899
 21
-2.505509
 31
0.0
  0
LINE
  8
0
  5
4DAC
 10
-5.196938
 20
-2.819841
 30
0.0
 11
-5.197195
 21
-3.051432
 31
0.0
  0
LINE
  8
0
  5
4DAD
 10
-5.197195
 20
-3.051432
 30
0.0
 11
-5.250432
 21
-3.051373
 31
0.0
  0
LINE
  8
0
  5
4DAE
 10
-5.258996
 20
-2.77273
 30
0.0
 11
-5.259611
 21
-3.326357
 31
0.0
  0
LINE
  8
0
  5
4DAF
 10
-5.259611
 20
-3.326357
 30
0.0
 11
-7.371353
 21
-3.324011
 31
0.0
  0
LINE
  8
0
  5
4DB0
 10
-7.371353
 20
-3.324011
 30
0.0
 11
-7.370762
 21
-2.791765
 31
0.0
  0
LINE
  8
0
  5
4DB1
 10
-5.320402
 20
-2.726114
 30
0.0
 11
-5.702663
 21
-2.793618
 31
0.0
  0
LINE
  8
0
  5
4DB2
 10
-5.702663
 20
-2.793618
 30
0.0
 11
-7.876515
 21
-2.791203
 31
0.0
  0
LINE
  8
0
  5
4DB3
 10
-8.032679
 20
0.098811
 30
0.0
 11
-8.053283
 21
-2.170052
 31
0.0
  0
LINE
  8
0
  5
4DB4
 10
-8.053283
 20
-2.170052
 30
0.0
 11
-7.858237
 21
-2.312202
 31
0.0
  0
LINE
  8
0
  5
4DB5
 10
-7.858237
 20
-2.312202
 30
0.0
 11
-7.40579
 21
-2.3748
 31
0.0
  0
LINE
  8
0
  5
4DB6
 10
-7.40579
 20
-2.3748
 30
0.0
 11
-6.84679
 21
-2.36655
 31
0.0
  0
LINE
  8
0
  5
4DB7
 10
-6.84679
 20
-2.36655
 30
0.0
 11
-5.826045
 21
-2.342257
 31
0.0
  0
LINE
  8
0
  5
4DB8
 10
-8.032679
 20
0.098811
 30
0.0
 11
-8.048242
 21
2.367715
 31
0.0
  0
LINE
  8
0
  5
4DB9
 10
-8.048242
 20
2.367715
 30
0.0
 11
-7.852882
 21
2.509431
 31
0.0
  0
LINE
  8
0
  5
4DBA
 10
-7.852882
 20
2.509431
 30
0.0
 11
-7.400296
 21
2.571023
 31
0.0
  0
LINE
  8
0
  5
4DBB
 10
-7.400296
 20
2.571023
 30
0.0
 11
-6.841316
 21
2.561532
 31
0.0
  0
LINE
  8
0
  5
4DBC
 10
-6.841316
 20
2.561532
 30
0.0
 11
-5.820628
 21
2.534971
 31
0.0
  0
LINE
  8
0
  5
4DBD
 10
-5.314133
 20
2.917705
 30
0.0
 11
-5.696243
 21
2.986057
 31
0.0
  0
LINE
  8
0
  5
4DBE
 10
-5.696243
 20
2.986057
 30
0.0
 11
-7.870095
 21
2.988472
 31
0.0
  0
LINE
  8
0
  5
4DBF
 10
-5.252624
 20
2.964184
 30
0.0
 11
-5.252009
 21
3.51781
 31
0.0
  0
LINE
  8
0
  5
4DC0
 10
-5.252009
 20
3.51781
 30
0.0
 11
-7.363751
 21
3.520156
 31
0.0
  0
LINE
  8
0
  5
4DC1
 10
-7.363751
 20
3.520156
 30
0.0
 11
-7.364342
 21
2.98791
 31
0.0
  0
LINE
  8
0
  5
4DC2
 10
-5.190461
 20
3.011157
 30
0.0
 11
-5.190204
 21
3.242748
 31
0.0
  0
LINE
  8
0
  5
4DC3
 10
-5.190204
 20
3.242748
 30
0.0
 11
-5.243441
 21
3.242807
 31
0.0
  0
LINE
  8
0
  5
4DC4
 10
-7.550793
 20
2.851317
 30
0.0
 11
-7.409115
 21
2.701753
 31
0.0
  0
LINE
  8
0
  5
4DC5
 10
-7.372919
 20
3.254043
 30
0.0
 11
-7.452775
 21
3.254131
 31
0.0
  0
LINE
  8
0
  5
4DC6
 10
-7.452775
 20
3.254131
 30
0.0
 11
-7.453071
 21
2.988008
 31
0.0
  0
LINE
  8
0
  5
4DC7
 10
-6.024677
 20
2.862231
 30
0.0
 11
-8.17193
 21
2.846874
 31
0.0
  0
LINE
  8
0
  5
4DC8
 10
-8.17193
 20
2.846874
 30
0.0
 11
-7.879293
 21
2.695746
 31
0.0
  0
LINE
  8
0
  5
4DC9
 10
-7.879293
 20
2.695746
 30
0.0
 11
-5.962725
 21
2.72023
 31
0.0
  0
LINE
  8
0
  5
4DCA
 10
-5.962725
 20
2.72023
 30
0.0
 11
-6.024677
 21
2.862231
 31
0.0
  0
LINE
  8
0
  5
4DCB
 10
-8.225601
 20
2.45662
 30
0.0
 11
-8.172453
 21
2.376724
 31
0.0
  0
LINE
  8
0
  5
4DCC
 10
-8.172453
 20
2.376724
 30
0.0
 11
-8.154874
 21
2.225901
 31
0.0
  0
LINE
  8
0
  5
4DCD
 10
-8.154874
 20
2.225901
 30
0.0
 11
-8.148145
 21
0.098939
 31
0.0
  0
LINE
  8
0
  5
4DCE
 10
-8.206712
 20
3.485609
 30
0.0
 11
-7.914006
 21
3.396576
 31
0.0
  0
LINE
  8
0
  5
4DCF
 10
-7.914006
 20
3.396576
 30
0.0
 11
-7.832829
 21
2.98843
 31
0.0
  0
LINE
  8
0
  5
4DD0
 10
-4.578615
 20
3.473499
 30
0.0
 11
-4.582368
 21
0.094979
 31
0.0
  0
LINE
  8
0
  5
4DD1
 10
-4.578615
 20
3.473499
 30
0.0
 11
-5.862192
 21
2.503564
 31
0.0
  0
LINE
  8
0
  5
4DD2
 10
-5.862192
 20
2.503564
 30
0.0
 11
-5.864866
 21
0.096403
 31
0.0
  0
LINE
  8
0
  5
4DD3
 10
-4.578615
 20
3.473499
 30
0.0
 11
-5.862192
 21
2.503564
 31
0.0
  0
LINE
  8
0
  5
4DD4
 10
-5.862192
 20
2.503564
 30
0.0
 11
-5.864866
 21
0.096403
 31
0.0
  0
LINE
  8
0
  5
4DD5
 10
-4.578615
 20
3.473499
 30
0.0
 11
-4.582368
 21
0.094979
 31
0.0
  0
LINE
  8
0
  5
4DD6
 10
-8.206712
 20
3.485609
 30
0.0
 11
-7.914006
 21
3.396576
 31
0.0
  0
LINE
  8
0
  5
4DD7
 10
-7.914006
 20
3.396576
 30
0.0
 11
-7.832829
 21
2.98843
 31
0.0
  0
LINE
  8
0
  5
4DD8
 10
-8.225601
 20
2.45662
 30
0.0
 11
-8.172453
 21
2.376724
 31
0.0
  0
LINE
  8
0
  5
4DD9
 10
-8.172453
 20
2.376724
 30
0.0
 11
-8.154874
 21
2.225901
 31
0.0
  0
LINE
  8
0
  5
4DDA
 10
-8.154874
 20
2.225901
 30
0.0
 11
-8.148145
 21
0.098939
 31
0.0
  0
LINE
  8
0
  5
4DDB
 10
-6.024677
 20
2.862231
 30
0.0
 11
-8.17193
 21
2.846874
 31
0.0
  0
LINE
  8
0
  5
4DDC
 10
-8.17193
 20
2.846874
 30
0.0
 11
-7.879293
 21
2.695746
 31
0.0
  0
LINE
  8
0
  5
4DDD
 10
-7.879293
 20
2.695746
 30
0.0
 11
-5.962725
 21
2.72023
 31
0.0
  0
LINE
  8
0
  5
4DDE
 10
-5.962725
 20
2.72023
 30
0.0
 11
-6.024677
 21
2.862231
 31
0.0
  0
LINE
  8
0
  5
4DDF
 10
-7.372919
 20
3.254043
 30
0.0
 11
-7.452775
 21
3.254131
 31
0.0
  0
LINE
  8
0
  5
4DE0
 10
-7.452775
 20
3.254131
 30
0.0
 11
-7.453071
 21
2.988008
 31
0.0
  0
LINE
  8
0
  5
4DE1
 10
-7.550793
 20
2.851317
 30
0.0
 11
-7.409115
 21
2.701753
 31
0.0
  0
LINE
  8
0
  5
4DE2
 10
-5.190461
 20
3.011157
 30
0.0
 11
-5.190204
 21
3.242748
 31
0.0
  0
LINE
  8
0
  5
4DE3
 10
-5.190204
 20
3.242748
 30
0.0
 11
-5.243441
 21
3.242807
 31
0.0
  0
LINE
  8
0
  5
4DE4
 10
-5.252624
 20
2.964184
 30
0.0
 11
-5.252009
 21
3.51781
 31
0.0
  0
LINE
  8
0
  5
4DE5
 10
-5.252009
 20
3.51781
 30
0.0
 11
-7.363751
 21
3.520156
 31
0.0
  0
LINE
  8
0
  5
4DE6
 10
-7.363751
 20
3.520156
 30
0.0
 11
-7.364342
 21
2.98791
 31
0.0
  0
LINE
  8
0
  5
4DE7
 10
-5.314133
 20
2.917705
 30
0.0
 11
-5.696243
 21
2.986057
 31
0.0
  0
LINE
  8
0
  5
4DE8
 10
-5.696243
 20
2.986057
 30
0.0
 11
-7.870095
 21
2.988472
 31
0.0
  0
LINE
  8
0
  5
4DE9
 10
-8.032679
 20
0.098811
 30
0.0
 11
-8.048242
 21
2.367715
 31
0.0
  0
LINE
  8
0
  5
4DEA
 10
-8.048242
 20
2.367715
 30
0.0
 11
-7.852882
 21
2.509431
 31
0.0
  0
LINE
  8
0
  5
4DEB
 10
-7.852882
 20
2.509431
 30
0.0
 11
-7.400296
 21
2.571023
 31
0.0
  0
LINE
  8
0
  5
4DEC
 10
-7.400296
 20
2.571023
 30
0.0
 11
-6.841316
 21
2.561532
 31
0.0
  0
LINE
  8
0
  5
4DED
 10
-6.841316
 20
2.561532
 30
0.0
 11
-5.820628
 21
2.534971
 31
0.0
  0
LINE
  8
0
  5
4DEE
 10
-8.032679
 20
0.098811
 30
0.0
 11
-8.053283
 21
-2.170052
 31
0.0
  0
LINE
  8
0
  5
4DEF
 10
-8.053283
 20
-2.170052
 30
0.0
 11
-7.858237
 21
-2.312202
 31
0.0
  0
LINE
  8
0
  5
4DF0
 10
-7.858237
 20
-2.312202
 30
0.0
 11
-7.40579
 21
-2.3748
 31
0.0
  0
LINE
  8
0
  5
4DF1
 10
-7.40579
 20
-2.3748
 30
0.0
 11
-6.84679
 21
-2.36655
 31
0.0
  0
LINE
  8
0
  5
4DF2
 10
-6.84679
 20
-2.36655
 30
0.0
 11
-5.826045
 21
-2.342257
 31
0.0
  0
LINE
  8
0
  5
4DF3
 10
-5.320402
 20
-2.726114
 30
0.0
 11
-5.702663
 21
-2.793618
 31
0.0
  0
LINE
  8
0
  5
4DF4
 10
-5.702663
 20
-2.793618
 30
0.0
 11
-7.876515
 21
-2.791203
 31
0.0
  0
LINE
  8
0
  5
4DF5
 10
-5.258996
 20
-2.77273
 30
0.0
 11
-5.259611
 21
-3.326357
 31
0.0
  0
LINE
  8
0
  5
4DF6
 10
-5.259611
 20
-3.326357
 30
0.0
 11
-7.371353
 21
-3.324011
 31
0.0
  0
LINE
  8
0
  5
4DF7
 10
-7.371353
 20
-3.324011
 30
0.0
 11
-7.370762
 21
-2.791765
 31
0.0
  0
LINE
  8
0
  5
4DF8
 10
-5.196938
 20
-2.819841
 30
0.0
 11
-5.197195
 21
-3.051432
 31
0.0
  0
LINE
  8
0
  5
4DF9
 10
-5.197195
 20
-3.051432
 30
0.0
 11
-5.250432
 21
-3.051373
 31
0.0
  0
LINE
  8
0
  5
4DFA
 10
-7.556909
 20
-2.654758
 30
0.0
 11
-7.414899
 21
-2.505509
 31
0.0
  0
LINE
  8
0
  5
4DFB
 10
-7.37993
 20
-3.057878
 30
0.0
 11
-7.459786
 21
-3.057789
 31
0.0
  0
LINE
  8
0
  5
4DFC
 10
-7.459786
 20
-3.057789
 30
0.0
 11
-7.45949
 21
-2.791666
 31
0.0
  0
LINE
  8
0
  5
4DFD
 10
-6.030821
 20
-2.669062
 30
0.0
 11
-8.178035
 21
-2.648936
 31
0.0
  0
LINE
  8
0
  5
4DFE
 10
-8.178035
 20
-2.648936
 30
0.0
 11
-7.885063
 21
-2.498458
 31
0.0
  0
LINE
  8
0
  5
4DFF
 10
-7.885063
 20
-2.498458
 30
0.0
 11
-5.968553
 21
-2.527199
 31
0.0
  0
LINE
  8
0
  5
4E00
 10
-5.968553
 20
-2.527199
 30
0.0
 11
-6.030821
 21
-2.669062
 31
0.0
  0
LINE
  8
0
  5
4E01
 10
-8.230838
 20
-2.258563
 30
0.0
 11
-8.177513
 21
-2.178785
 31
0.0
  0
LINE
  8
0
  5
4E02
 10
-8.177513
 20
-2.178785
 30
0.0
 11
-8.159599
 21
-2.028002
 31
0.0
  0
LINE
  8
0
  5
4E03
 10
-8.159599
 20
-2.028002
 30
0.0
 11
-8.148145
 21
0.098939
 31
0.0
  0
LINE
  8
0
  5
4E04
 10
-8.214236
 20
-3.287592
 30
0.0
 11
-7.921333
 21
-3.199209
 31
0.0
  0
LINE
  8
0
  5
4E05
 10
-7.921333
 20
-3.199209
 30
0.0
 11
-7.839249
 21
-2.791245
 31
0.0
  0
LINE
  8
0
  5
4E06
 10
-4.58612
 20
-3.283541
 30
0.0
 11
-4.582368
 21
0.094979
 31
0.0
  0
LINE
  8
0
  5
4E07
 10
-3.521975
 20
-3.284145
 30
0.0
 11
-3.518223
 21
0.094375
 31
0.0
  0
LINE
  8
0
  5
4E08
 10
-3.51447
 20
3.472894
 30
0.0
 11
-3.518223
 21
0.094375
 31
0.0
  0
LINE
  8
0
  5
4E09
 10
-3.572765
 20
3.472959
 30
0.0
 11
-4.578615
 21
3.473499
 31
0.0
  0
LINE
  8
0
  5
4E0A
 10
-3.572075
 20
4.094629
 30
0.0
 11
-3.572765
 21
3.472959
 31
0.0
  0
LINE
  8
0
  5
4E0B
 10
-3.572765
 20
3.472959
 30
0.0
 11
-4.578615
 21
3.473499
 31
0.0
  0
LINE
  8
0
  5
4E0C
 10
-3.572075
 20
4.094629
 30
0.0
 11
-3.572765
 21
3.472959
 31
0.0
  0
LINE
  8
0
  5
4E0D
 10
-3.51447
 20
3.472894
 30
0.0
 11
-3.518223
 21
0.094375
 31
0.0
  0
LINE
  8
0
  5
4E0E
 10
-3.521975
 20
-3.284145
 30
0.0
 11
-3.518223
 21
0.094375
 31
0.0
  0
LINE
  8
0
  5
4E0F
 10
-3.580271
 20
-3.28408
 30
0.0
 11
-4.58612
 21
-3.283541
 31
0.0
  0
LINE
  8
0
  5
4E10
 10
-1.570666
 20
4.034124
 30
0.0
 11
-2.075892
 21
4.034686
 31
0.0
  0
LINE
  8
0
  5
4E11
 10
-1.570666
 20
4.034124
 30
0.0
 11
-2.075892
 21
4.034686
 31
0.0
  0
LINE
  8
0
  5
4E12
 10
0.081036
 20
4.03229
 30
0.0
 11
-0.035835
 21
3.779866
 31
0.0
  0
LINE
  8
0
  5
4E13
 10
0.586263
 20
4.031729
 30
0.0
 11
0.081036
 21
4.03229
 31
0.0
  0
LINE
  8
0
  5
4E14
 10
0.702573
 20
3.779046
 30
0.0
 11
0.586263
 21
4.031729
 31
0.0
  0
LINE
  8
0
  5
4E15
 10
0.081036
 20
4.03229
 30
0.0
 11
-0.035835
 21
3.779866
 31
0.0
  0
LINE
  8
0
  5
4E16
 10
0.586263
 20
4.031729
 30
0.0
 11
0.081036
 21
4.03229
 31
0.0
  0
LINE
  8
0
  5
4E17
 10
0.702573
 20
3.779046
 30
0.0
 11
0.586263
 21
4.031729
 31
0.0
  0
LINE
  8
0
  5
4E18
 10
-1.454355
 20
3.781441
 30
0.0
 11
-1.570666
 21
4.034124
 31
0.0
  0
LINE
  8
0
  5
4E19
 10
-1.454355
 20
3.781441
 30
0.0
 11
-1.570666
 21
4.034124
 31
0.0
  0
LINE
  8
0
  5
4E1A
 10
-2.075892
 20
4.034686
 30
0.0
 11
-2.192763
 21
3.782262
 31
0.0
  0
LINE
  8
0
  5
4E1B
 10
-2.075892
 20
4.034686
 30
0.0
 11
-2.192763
 21
3.782262
 31
0.0
  0
ARC
  8
0
  5
4E1C
 10
-5.197511
 20
-3.22168
 30
0.0
 40
0.274072
 50
180.063641
 51
270.063641
210
0.0
220
0.0
230
-1.0
  0
ARC
  8
0
  5
4E1D
 10
-9.212029
 20
-3.226139
 30
0.0
 40
0.274072
 50
180.063641
 51
270.063641
210
0.0
220
0.0
230
-1.0
  0
LINE
  8
0
  5
4E1E
 10
10.397333
 20
3.671744
 30
0.0
 11
10.397333
 21
-3.512694
 31
0.0
  0
LINE
  8
0
  5
4E1F
 10
9.714259
 20
0.080237
 30
0.0
 11
9.710161
 21
-3.609678
 31
0.0
  0
LINE
  8
0
  5
4E20
 10
9.710161
 20
-3.609678
 30
0.0
 11
4.318193
 21
-3.603689
 31
0.0
  0
LINE
  8
0
  5
4E21
 10
9.211725
 20
-3.500212
 30
0.0
 11
6.607782
 21
-3.497319
 31
0.0
210
0.0
220
0.0
230
-1.0
  0
LINE
  8
0
  5
4E22
 10
9.989266
 20
-3.512241
 30
0.0
 11
9.988812
 21
-3.920212
 31
0.0
  0
LINE
  8
0
  5
4E23
 10
10.397333
 20
-3.512694
 30
0.0
 11
9.989266
 21
-3.512241
 31
0.0
  0
LINE
  8
0
  5
4E24
 10
9.405276
 20
2.872116
 30
0.0
 11
6.428366
 21
2.875423
 31
0.0
  0
LINE
  8
0
  5
4E25
 10
9.4042
 20
1.903327
 30
0.0
 11
6.42729
 21
1.906634
 31
0.0
  0
LINE
  8
0
  5
4E26
 10
9.460307
 20
2.546587
 30
0.0
 11
6.372612
 21
2.550017
 31
0.0
  0
ARC
  8
0
  5
4E27
 10
9.218288
 20
2.41797
 30
0.0
 40
0.274072
 50
359.936359
 51
89.936359
  0
LINE
  8
0
  5
4E28
 10
9.461383
 20
3.515376
 30
0.0
 11
6.373688
 21
3.518806
 31
0.0
  0
LINE
  8
0
  5
4E29
 10
9.493341
 20
3.3009
 30
0.0
 11
6.341254
 21
3.304401
 31
0.0
  0
LINE
  8
0
  5
4E2A
 10
9.493103
 20
3.086459
 30
0.0
 11
6.341016
 21
3.089961
 31
0.0
  0
ARC
  8
0
  5
4E2B
 10
9.219016
 20
3.07317
 30
0.0
 40
0.274072
 50
269.936359
 51
359.936359
  0
ARC
  8
0
  5
4E2C
 10
9.219364
 20
3.386759
 30
0.0
 40
0.274072
 50
359.936359
 51
89.936359
  0
ARC
  8
0
  5
4E2D
 10
9.21794
 20
2.104381
 30
0.0
 40
0.274072
 50
269.936359
 51
359.936359
  0
LINE
  8
0
  5
4E2E
 10
9.492265
 20
2.332111
 30
0.0
 11
6.340178
 21
2.335612
 31
0.0
  0
LINE
  8
0
  5
4E2F
 10
9.492027
 20
2.11767
 30
0.0
 11
6.33994
 21
2.121172
 31
0.0
  0
LINE
  8
0
  5
4E30
 10
9.399084
 20
-2.711911
 30
0.0
 11
6.422174
 21
-2.708604
 31
0.0
210
0.0
220
0.0
230
-1.0
  0
LINE
  8
0
  5
4E31
 10
9.40016
 20
-1.743122
 30
0.0
 11
6.42325
 21
-1.739815
 31
0.0
210
0.0
220
0.0
230
-1.0
  0
LINE
  8
0
  5
4E32
 10
9.486434
 20
-2.926449
 30
0.0
 11
6.334347
 21
-2.922948
 31
0.0
210
0.0
220
0.0
230
-1.0
  0
LINE
  8
0
  5
4E33
 10
9.454838
 20
-2.386505
 30
0.0
 11
6.367143
 21
-2.383076
 31
0.0
210
0.0
220
0.0
230
-1.0
  0
LINE
  8
0
  5
4E34
 10
9.487272
 20
-2.1721
 30
0.0
 11
6.335185
 21
-2.168599
 31
0.0
210
0.0
220
0.0
230
-1.0
  0
LINE
  8
0
  5
4E35
 10
9.48751
 20
-1.95766
 30
0.0
 11
6.335423
 21
-1.954159
 31
0.0
210
0.0
220
0.0
230
-1.0
  0
ARC
  8
0
  5
4E36
 10
-9.213453
 20
-1.943761
 30
0.0
 40
0.274072
 50
90.063641
 51
180.063641
210
0.0
220
0.0
230
-1.0
  0
ARC
  8
0
  5
4E37
 10
-9.213105
 20
-2.25735
 30
0.0
 40
0.274072
 50
180.063641
 51
270.063641
210
0.0
220
0.0
230
-1.0
  0
ARC
  8
0
  5
4E38
 10
-9.212377
 20
-2.91255
 30
0.0
 40
0.274072
 50
90.063641
 51
180.063641
210
0.0
220
0.0
230
-1.0
  0
LINE
  8
0
  5
4E39
 10
9.453762
 20
-3.355294
 30
0.0
 11
6.366067
 21
-3.351865
 31
0.0
210
0.0
220
0.0
230
-1.0
  0
LINE
  8
0
  5
4E3A
 10
9.486196
 20
-3.140889
 30
0.0
 11
6.334109
 21
-3.137388
 31
0.0
210
0.0
220
0.0
230
-1.0
  0
LINE
  8
0
  5
4E3B
 10
9.718356
 20
3.769031
 30
0.0
 11
4.580472
 21
3.774738
 31
0.0
  0
LINE
  8
0
  5
4E3C
 10
9.218711
 20
2.799098
 30
0.0
 11
6.614768
 21
2.80199
 31
0.0
  0
LINE
  8
0
  5
4E3D
 10
9.218592
 20
2.692042
 30
0.0
 11
6.61465
 21
2.694934
 31
0.0
  0
LINE
  8
0
  5
4E3E
 10
9.219668
 20
3.660831
 30
0.0
 11
6.615726
 21
3.663723
 31
0.0
  0
LINE
  8
0
  5
4E3F
 10
9.217635
 20
1.830309
 30
0.0
 11
6.613692
 21
1.833201
 31
0.0
  0
ARC
  8
0
  5
4E40
 10
5.204497
 20
3.077629
 30
0.0
 40
0.274072
 50
269.936359
 51
359.936359
  0
ARC
  8
0
  5
4E41
 10
5.204846
 20
3.391218
 30
0.0
 40
0.274072
 50
359.936359
 51
89.936359
  0
ARC
  8
0
  5
4E42
 10
5.203421
 20
2.10884
 30
0.0
 40
0.274072
 50
269.936359
 51
359.936359
  0
ARC
  8
0
  5
4E43
 10
5.20377
 20
2.422429
 30
0.0
 40
0.274072
 50
359.936359
 51
89.936359
  0
LINE
  8
0
  5
4E44
 10
9.212682
 20
-2.638478
 30
0.0
 11
6.608739
 21
-2.635586
 31
0.0
210
0.0
220
0.0
230
-1.0
  0
LINE
  8
0
  5
4E45
 10
9.213758
 20
-1.669689
 30
0.0
 11
6.609815
 21
-1.666797
 31
0.0
210
0.0
220
0.0
230
-1.0
  0
LINE
  8
0
  5
4E46
 10
9.212801
 20
-2.531423
 30
0.0
 11
6.608858
 21
-2.52853
 31
0.0
210
0.0
220
0.0
230
-1.0
  0
ARC
  8
0
  5
4E47
 10
-5.198935
 20
-1.939302
 30
0.0
 40
0.274072
 50
90.063641
 51
180.063641
210
0.0
220
0.0
230
-1.0
  0
ARC
  8
0
  5
4E48
 10
-5.197859
 20
-2.908091
 30
0.0
 40
0.274072
 50
90.063641
 51
180.063641
210
0.0
220
0.0
230
-1.0
  0
ARC
  8
0
  5
4E49
 10
-5.198587
 20
-2.252891
 30
0.0
 40
0.274072
 50
180.063641
 51
270.063641
210
0.0
220
0.0
230
-1.0
  0
LINE
  8
0
  5
4E4A
 10
9.989719
 20
4.080168
 30
0.0
 11
9.989719
 21
4.080168
 31
0.0
  0
LINE
  8
0
  5
4E4B
 10
9.989266
 20
3.672197
 30
0.0
 11
9.989719
 21
4.080168
 31
0.0
  0
LINE
  8
0
  5
4E4C
 10
10.397333
 20
3.671744
 30
0.0
 11
9.989266
 21
3.672197
 31
0.0
  0
LINE
  8
0
  5
4E4D
 10
10.397333
 20
3.671744
 30
0.0
 11
9.989266
 21
3.672197
 31
0.0
  0
LINE
  8
0
  5
4E4E
 10
9.714259
 20
0.080237
 30
0.0
 11
9.718356
 21
3.769031
 31
0.0
  0
ENDBLK
  8
0
  5
79F3
  0
BLOCK
  8
0
  5
79F4
  2
*D2
 70
    65
 10
0.0
 20
0.0
 30
0.0
  3
*D2
  0
POINT
  8
DEFPOINTS
  6
CONTINUOUS
 62
     7
  5
4E4F
 10
134.632113
 20
776.55011
 30
0.0
  0
POINT
  8
DEFPOINTS
  6
CONTINUOUS
 62
     7
  5
4E50
 10
160.353278
 20
776.06663
 30
0.0
  0
POINT
  8
DEFPOINTS
  6
CONTINUOUS
 62
     7
  5
4E51
 10
160.353278
 20
789.604085
 30
0.0
  0
LINE
  8
0
  6
CONTINUOUS
  5
4E52
 10
134.632113
 20
789.604085
 30
0.0
 11
140.344896
 21
789.604085
 31
0.0
  0
LINE
  8
0
  6
CONTINUOUS
  5
4E53
 10
160.353278
 20
789.604085
 30
0.0
 11
154.640496
 21
789.604085
 31
0.0
  0
INSERT
  8
0
  6
CONTINUOUS
  5
4E54
  2
ARROW
 10
160.353278
 20
789.604085
 30
0.0
 41
2.88
 42
2.88
 43
2.88
  0
INSERT
  8
0
  6
CONTINUOUS
  5
4E55
  2
ARROW
 10
134.632113
 20
789.604085
 30
0.0
 41
2.88
 42
2.88
 50
180.0
 43
2.88
  0
TEXT
  8
0
  6
CONTINUOUS
  5
4E56
 10
142.441896
 20
788.164085
 30
0.0
 40
2.88
  1
25.721
  7
TIMES_NEW_ROMAN
 72
     1
 11
147.492696
 21
789.604085
 31
0.0
 73
     2
  0
LINE
  8
0
  6
CONTINUOUS
  5
4E57
 10
160.353278
 20
777.06663
 30
0.0
 11
160.353278
 21
792.484085
 31
0.0
  0
LINE
  8
0
  6
CONTINUOUS
  5
4E58
 10
134.632113
 20
777.55011
 30
0.0
 11
134.632113
 21
792.484085
 31
0.0
  0
ENDBLK
  8
0
  5
79F5
  0
BLOCK
  8
0
  5
79F6
  2
ARROW
 70
     0
 10
0.0
 20
0.0
 30
0.0
  3

  0
SOLID
  8
0
  6
BYBLOCK
 62
     0
  5
4E59
 10
-1.0
 20
0.176
 30
0.0
 11
-1.0
 21
-0.176
 31
0.0
 12
0.0
 22
0.0
 32
0.0
 13
0.0
 23
0.0
 33
0.0
  0
ENDBLK
  8
0
  5
79F7
  0
BLOCK
  8
0
  5
79F8
  2
*D4
 70
    65
 10
0.0
 20
0.0
 30
0.0
  3
*D4
  0
POINT
  8
DEFPOINTS
  6
CONTINUOUS
 62
     7
  5
5215
 10
7.616808
 20
-5.164899
 30
0.0
  0
POINT
  8
DEFPOINTS
  6
CONTINUOUS
 62
     7
  5
5216
 10
33.337973
 20
-5.64838
 30
0.0
  0
POINT
  8
DEFPOINTS
  6
CONTINUOUS
 62
     7
  5
5217
 10
33.337973
 20
7.889075
 30
0.0
  0
LINE
  8
0
  5
5218
 10
7.616808
 20
7.889075
 30
0.0
 11
12.082191
 21
7.889075
 31
0.0
  0
LINE
  8
0
  5
5219
 10
33.337973
 20
7.889075
 30
0.0
 11
28.872591
 21
7.889075
 31
0.0
  0
INSERT
  8
0
  5
521A
  2
ARROW
 10
33.337973
 20
7.889075
 30
0.0
 41
2.88
 42
2.88
 43
2.88
  0
INSERT
  8
0
  5
521B
  2
ARROW
 10
7.616808
 20
7.889075
 30
0.0
 41
2.88
 42
2.88
 50
180.0
 43
2.88
  0
TEXT
  8
0
  5
521C
 10
13.997391
 20
6.449075
 30
0.0
 40
2.88
  1
25.721
 72
     1
 11
20.477391
 21
7.889075
 31
0.0
 73
     2
  0
LINE
  8
0
  5
521D
 10
33.337973
 20
-4.64838
 30
0.0
 11
33.337973
 21
10.769075
 31
0.0
  0
LINE
  8
0
  5
521E
 10
7.616808
 20
-4.164899
 30
0.0
 11
7.616808
 21
10.769075
 31
0.0
  0
ENDBLK
  8
0
  5
79F9
  0
ENDSEC
  0
SECTION
  2
ENTITIES
  0
INSERT
  8
0
  5
5213
  2
DUMP_TK_SIDE
 10
-4.889705
 20
-21.693546
 30
0.0
  0
INSERT
  8
0
  5
5214
  2
DUMP_TRUCK
 10
0.095134
 20
-6.130093
 30
0.0
 50
269.986547
  0
ENDSEC
  0
EOF
